solid OpenSCAD_Model
  facet normal -1 0 0
    outer loop
      vertex -45 -45 -22.5
      vertex -45 -45 22.5
      vertex -45 45 -22.5
    endloop
  endfacet
  facet normal -1 0 0
    outer loop
      vertex -45 45 -22.5
      vertex -45 -45 22.5
      vertex -45 45 22.5
    endloop
  endfacet
  facet normal 0 -1 0
    outer loop
      vertex -45 -45 22.5
      vertex -45 -45 -22.5
      vertex 45 -45 -22.5
    endloop
  endfacet
  facet normal 0 -1 0
    outer loop
      vertex 45 -45 22.5
      vertex -45 -45 22.5
      vertex 45 -45 -22.5
    endloop
  endfacet
  facet normal 0 0 -1
    outer loop
      vertex 4.18114 39.7809 -22.5
      vertex -45 45 -22.5
      vertex 45 45 -22.5
    endloop
  endfacet
  facet normal 0 0 -1
    outer loop
      vertex -45 -45 -22.5
      vertex -45 45 -22.5
      vertex -40 0 -22.5
    endloop
  endfacet
  facet normal 0 0 -1
    outer loop
      vertex -45 -45 -22.5
      vertex -40 0 -22.5
      vertex -39.1259 -8.31647 -22.5
    endloop
  endfacet
  facet normal 0 0 -1
    outer loop
      vertex -45 -45 -22.5
      vertex -39.1259 -8.31647 -22.5
      vertex -36.5418 -16.2695 -22.5
    endloop
  endfacet
  facet normal 0 0 -1
    outer loop
      vertex -45 -45 -22.5
      vertex -36.5418 -16.2695 -22.5
      vertex -32.3607 -23.5114 -22.5
    endloop
  endfacet
  facet normal 0 0 -1
    outer loop
      vertex -45 -45 -22.5
      vertex -32.3607 -23.5114 -22.5
      vertex -26.7652 -29.7258 -22.5
    endloop
  endfacet
  facet normal 0 0 -1
    outer loop
      vertex -45 -45 -22.5
      vertex -26.7652 -29.7258 -22.5
      vertex -20 -34.641 -22.5
    endloop
  endfacet
  facet normal 0 0 -1
    outer loop
      vertex -45 -45 -22.5
      vertex -20 -34.641 -22.5
      vertex -12.3607 -38.0423 -22.5
    endloop
  endfacet
  facet normal 0 0 -1
    outer loop
      vertex -45 -45 -22.5
      vertex -12.3607 -38.0423 -22.5
      vertex -4.18114 -39.7809 -22.5
    endloop
  endfacet
  facet normal 0 0 -1
    outer loop
      vertex -45 -45 -22.5
      vertex -4.18114 -39.7809 -22.5
      vertex 45 -45 -22.5
    endloop
  endfacet
  facet normal 0 0 -1
    outer loop
      vertex 12.3607 -38.0423 -22.5
      vertex 45 -45 -22.5
      vertex 4.18114 -39.7809 -22.5
    endloop
  endfacet
  facet normal 0 0 -1
    outer loop
      vertex 20 -34.641 -22.5
      vertex 45 -45 -22.5
      vertex 12.3607 -38.0423 -22.5
    endloop
  endfacet
  facet normal 0 0 -1
    outer loop
      vertex 26.7652 -29.7258 -22.5
      vertex 45 -45 -22.5
      vertex 20 -34.641 -22.5
    endloop
  endfacet
  facet normal 0 0 -1
    outer loop
      vertex 32.3607 -23.5114 -22.5
      vertex 45 -45 -22.5
      vertex 26.7652 -29.7258 -22.5
    endloop
  endfacet
  facet normal 0 0 -1
    outer loop
      vertex 39.1259 8.31647 -22.5
      vertex 45 45 -22.5
      vertex 40 0 -22.5
    endloop
  endfacet
  facet normal 0 0 -1
    outer loop
      vertex 45 -45 -22.5
      vertex 32.3607 -23.5114 -22.5
      vertex 36.5418 -16.2695 -22.5
    endloop
  endfacet
  facet normal 0 0 -1
    outer loop
      vertex 45 -45 -22.5
      vertex 36.5418 -16.2695 -22.5
      vertex 39.1259 -8.31647 -22.5
    endloop
  endfacet
  facet normal 0 0 -1
    outer loop
      vertex 45 -45 -22.5
      vertex 39.1259 -8.31647 -22.5
      vertex 45 45 -22.5
    endloop
  endfacet
  facet normal 0 0 -1
    outer loop
      vertex 39.1259 -8.31647 -22.5
      vertex 40 0 -22.5
      vertex 45 45 -22.5
    endloop
  endfacet
  facet normal 0 0 -1
    outer loop
      vertex 36.5418 16.2695 -22.5
      vertex 45 45 -22.5
      vertex 39.1259 8.31647 -22.5
    endloop
  endfacet
  facet normal 0 0 -1
    outer loop
      vertex -32.3607 23.5114 -22.5
      vertex -45 45 -22.5
      vertex -26.7652 29.7258 -22.5
    endloop
  endfacet
  facet normal 0 0 -1
    outer loop
      vertex -4.18114 39.7809 -22.5
      vertex -45 45 -22.5
      vertex 4.18114 39.7809 -22.5
    endloop
  endfacet
  facet normal 0 0 -1
    outer loop
      vertex 36.5418 16.2695 -22.5
      vertex 32.3607 23.5114 -22.5
      vertex 45 45 -22.5
    endloop
  endfacet
  facet normal 0 0 -1
    outer loop
      vertex -20 34.641 -22.5
      vertex -45 45 -22.5
      vertex -12.3607 38.0423 -22.5
    endloop
  endfacet
  facet normal 0 0 -1
    outer loop
      vertex 32.3607 23.5114 -22.5
      vertex 26.7652 29.7258 -22.5
      vertex 45 45 -22.5
    endloop
  endfacet
  facet normal 0 0 -1
    outer loop
      vertex 26.7652 29.7258 -22.5
      vertex 20 34.641 -22.5
      vertex 45 45 -22.5
    endloop
  endfacet
  facet normal 0 0 -1
    outer loop
      vertex -12.3607 38.0423 -22.5
      vertex -45 45 -22.5
      vertex -4.18114 39.7809 -22.5
    endloop
  endfacet
  facet normal 0 0 -1
    outer loop
      vertex 20 34.641 -22.5
      vertex 12.3607 38.0423 -22.5
      vertex 45 45 -22.5
    endloop
  endfacet
  facet normal 0 0 -1
    outer loop
      vertex 12.3607 38.0423 -22.5
      vertex 4.18114 39.7809 -22.5
      vertex 45 45 -22.5
    endloop
  endfacet
  facet normal 0 0 -1
    outer loop
      vertex -26.7652 29.7258 -22.5
      vertex -45 45 -22.5
      vertex -20 34.641 -22.5
    endloop
  endfacet
  facet normal 0 0 -1
    outer loop
      vertex -36.5418 16.2695 -22.5
      vertex -45 45 -22.5
      vertex -32.3607 23.5114 -22.5
    endloop
  endfacet
  facet normal 0 0 -1
    outer loop
      vertex -39.1259 8.31647 -22.5
      vertex -45 45 -22.5
      vertex -36.5418 16.2695 -22.5
    endloop
  endfacet
  facet normal 0 0 -1
    outer loop
      vertex -40 0 -22.5
      vertex -45 45 -22.5
      vertex -39.1259 8.31647 -22.5
    endloop
  endfacet
  facet normal 0 0 -1
    outer loop
      vertex 4.18114 -39.7809 -22.5
      vertex 45 -45 -22.5
      vertex -4.18114 -39.7809 -22.5
    endloop
  endfacet
  facet normal 0 1 0
    outer loop
      vertex -45 45 -22.5
      vertex -45 45 22.5
      vertex 45 45 -22.5
    endloop
  endfacet
  facet normal 0 1 0
    outer loop
      vertex 45 45 -22.5
      vertex -45 45 22.5
      vertex 45 45 22.5
    endloop
  endfacet
  facet normal 0 0 1
    outer loop
      vertex 2.09057 -19.8904 22.5
      vertex -45 -45 22.5
      vertex 45 -45 22.5
    endloop
  endfacet
  facet normal 0 0 1
    outer loop
      vertex -45 45 22.5
      vertex -45 -45 22.5
      vertex -19.563 -4.15823 22.5
    endloop
  endfacet
  facet normal 0 0 1
    outer loop
      vertex 6.18034 -19.0211 22.5
      vertex 2.09057 -19.8904 22.5
      vertex 45 -45 22.5
    endloop
  endfacet
  facet normal 0 0 1
    outer loop
      vertex -45 45 22.5
      vertex -19.563 -4.15823 22.5
      vertex -20 0 22.5
    endloop
  endfacet
  facet normal 0 0 1
    outer loop
      vertex -45 45 22.5
      vertex -20 0 22.5
      vertex -19.563 4.15823 22.5
    endloop
  endfacet
  facet normal 0 0 1
    outer loop
      vertex -45 45 22.5
      vertex -19.563 4.15823 22.5
      vertex -18.2709 8.13473 22.5
    endloop
  endfacet
  facet normal 0 0 1
    outer loop
      vertex 10 -17.3205 22.5
      vertex 6.18034 -19.0211 22.5
      vertex 45 -45 22.5
    endloop
  endfacet
  facet normal 0 0 1
    outer loop
      vertex -45 45 22.5
      vertex -18.2709 8.13473 22.5
      vertex -16.1803 11.7557 22.5
    endloop
  endfacet
  facet normal 0 0 1
    outer loop
      vertex -10 17.3205 22.5
      vertex -45 45 22.5
      vertex -13.3826 14.8629 22.5
    endloop
  endfacet
  facet normal 0 0 1
    outer loop
      vertex 45 45 22.5
      vertex -45 45 22.5
      vertex -10 17.3205 22.5
    endloop
  endfacet
  facet normal 0 0 1
    outer loop
      vertex 18.2709 8.13473 22.5
      vertex 19.563 4.15823 22.5
      vertex 45 -45 22.5
    endloop
  endfacet
  facet normal 0 0 1
    outer loop
      vertex 45 45 22.5
      vertex -10 17.3205 22.5
      vertex -6.18034 19.0211 22.5
    endloop
  endfacet
  facet normal 0 0 1
    outer loop
      vertex 16.1803 -11.7557 22.5
      vertex 13.3826 -14.8629 22.5
      vertex 45 -45 22.5
    endloop
  endfacet
  facet normal 0 0 1
    outer loop
      vertex 18.2709 -8.13473 22.5
      vertex 16.1803 -11.7557 22.5
      vertex 45 -45 22.5
    endloop
  endfacet
  facet normal 0 0 1
    outer loop
      vertex 45 45 22.5
      vertex -2.09057 19.8904 22.5
      vertex 2.09057 19.8904 22.5
    endloop
  endfacet
  facet normal 0 0 1
    outer loop
      vertex 19.563 -4.15823 22.5
      vertex 18.2709 -8.13473 22.5
      vertex 45 -45 22.5
    endloop
  endfacet
  facet normal 0 0 1
    outer loop
      vertex 45 45 22.5
      vertex 2.09057 19.8904 22.5
      vertex 6.18034 19.0211 22.5
    endloop
  endfacet
  facet normal 0 0 1
    outer loop
      vertex 13.3826 -14.8629 22.5
      vertex 10 -17.3205 22.5
      vertex 45 -45 22.5
    endloop
  endfacet
  facet normal 0 0 1
    outer loop
      vertex 45 45 22.5
      vertex 6.18034 19.0211 22.5
      vertex 10 17.3205 22.5
    endloop
  endfacet
  facet normal 0 0 1
    outer loop
      vertex 45 45 22.5
      vertex 10 17.3205 22.5
      vertex 13.3826 14.8629 22.5
    endloop
  endfacet
  facet normal 0 0 1
    outer loop
      vertex 19.563 4.15823 22.5
      vertex 20 0 22.5
      vertex 45 -45 22.5
    endloop
  endfacet
  facet normal 0 0 1
    outer loop
      vertex 45 45 22.5
      vertex 13.3826 14.8629 22.5
      vertex 16.1803 11.7557 22.5
    endloop
  endfacet
  facet normal 0 0 1
    outer loop
      vertex 45 45 22.5
      vertex 18.2709 8.13473 22.5
      vertex 45 -45 22.5
    endloop
  endfacet
  facet normal 0 0 1
    outer loop
      vertex 45 45 22.5
      vertex 16.1803 11.7557 22.5
      vertex 18.2709 8.13473 22.5
    endloop
  endfacet
  facet normal 0 0 1
    outer loop
      vertex -6.18034 19.0211 22.5
      vertex -2.09057 19.8904 22.5
      vertex 45 45 22.5
    endloop
  endfacet
  facet normal 0 0 1
    outer loop
      vertex 20 0 22.5
      vertex 19.563 -4.15823 22.5
      vertex 45 -45 22.5
    endloop
  endfacet
  facet normal 0 0 1
    outer loop
      vertex -2.09057 -19.8904 22.5
      vertex -45 -45 22.5
      vertex 2.09057 -19.8904 22.5
    endloop
  endfacet
  facet normal 0 0 1
    outer loop
      vertex -6.18034 -19.0211 22.5
      vertex -45 -45 22.5
      vertex -2.09057 -19.8904 22.5
    endloop
  endfacet
  facet normal 0 0 1
    outer loop
      vertex -10 -17.3205 22.5
      vertex -45 -45 22.5
      vertex -6.18034 -19.0211 22.5
    endloop
  endfacet
  facet normal 0 0 1
    outer loop
      vertex -13.3826 -14.8629 22.5
      vertex -45 -45 22.5
      vertex -10 -17.3205 22.5
    endloop
  endfacet
  facet normal 0 0 1
    outer loop
      vertex -16.1803 -11.7557 22.5
      vertex -45 -45 22.5
      vertex -13.3826 -14.8629 22.5
    endloop
  endfacet
  facet normal 0 0 1
    outer loop
      vertex -18.2709 -8.13473 22.5
      vertex -45 -45 22.5
      vertex -16.1803 -11.7557 22.5
    endloop
  endfacet
  facet normal 0 0 1
    outer loop
      vertex -19.563 -4.15823 22.5
      vertex -45 -45 22.5
      vertex -18.2709 -8.13473 22.5
    endloop
  endfacet
  facet normal 0 0 1
    outer loop
      vertex -16.1803 11.7557 22.5
      vertex -13.3826 14.8629 22.5
      vertex -45 45 22.5
    endloop
  endfacet
  facet normal 1 0 0
    outer loop
      vertex 45 -45 22.5
      vertex 45 -45 -22.5
      vertex 45 45 -22.5
    endloop
  endfacet
  facet normal 1 0 0
    outer loop
      vertex 45 45 22.5
      vertex 45 -45 22.5
      vertex 45 45 -22.5
    endloop
  endfacet
  facet normal 0.994522 0.104528 0
    outer loop
      vertex -40 0 10
      vertex -39.1259 -8.31647 10
      vertex -39.1259 -8.31647 -22.5
    endloop
  endfacet
  facet normal 0.994522 0.104528 0
    outer loop
      vertex -40 0 -22.5
      vertex -40 0 10
      vertex -39.1259 -8.31647 -22.5
    endloop
  endfacet
  facet normal 0.994522 -0.104528 0
    outer loop
      vertex -39.1259 8.31647 -22.5
      vertex -39.1259 8.31647 10
      vertex -40 0 10
    endloop
  endfacet
  facet normal 0.994522 -0.104528 0
    outer loop
      vertex -40 0 -22.5
      vertex -39.1259 8.31647 -22.5
      vertex -40 0 10
    endloop
  endfacet
  facet normal 0.951057 -0.309017 0
    outer loop
      vertex -36.5418 16.2695 -22.5
      vertex -36.5418 16.2695 10
      vertex -39.1259 8.31647 10
    endloop
  endfacet
  facet normal 0.951057 -0.309017 0
    outer loop
      vertex -39.1259 8.31647 -22.5
      vertex -36.5418 16.2695 -22.5
      vertex -39.1259 8.31647 10
    endloop
  endfacet
  facet normal 0.866025 -0.5 0
    outer loop
      vertex -32.3607 23.5114 -22.5
      vertex -32.3607 23.5114 10
      vertex -36.5418 16.2695 10
    endloop
  endfacet
  facet normal 0.866025 -0.5 0
    outer loop
      vertex -36.5418 16.2695 -22.5
      vertex -32.3607 23.5114 -22.5
      vertex -36.5418 16.2695 10
    endloop
  endfacet
  facet normal 0.743145 -0.669131 0
    outer loop
      vertex -26.7652 29.7258 -22.5
      vertex -26.7652 29.7258 10
      vertex -32.3607 23.5114 10
    endloop
  endfacet
  facet normal 0.743145 -0.669131 0
    outer loop
      vertex -32.3607 23.5114 -22.5
      vertex -26.7652 29.7258 -22.5
      vertex -32.3607 23.5114 10
    endloop
  endfacet
  facet normal 0.587785 -0.809017 0
    outer loop
      vertex -20 34.641 -22.5
      vertex -20 34.641 10
      vertex -26.7652 29.7258 10
    endloop
  endfacet
  facet normal 0.587785 -0.809017 0
    outer loop
      vertex -26.7652 29.7258 -22.5
      vertex -20 34.641 -22.5
      vertex -26.7652 29.7258 10
    endloop
  endfacet
  facet normal 0.406737 -0.913545 0
    outer loop
      vertex -12.3607 38.0423 -22.5
      vertex -12.3607 38.0423 10
      vertex -20 34.641 10
    endloop
  endfacet
  facet normal 0.406737 -0.913545 0
    outer loop
      vertex -20 34.641 -22.5
      vertex -12.3607 38.0423 -22.5
      vertex -20 34.641 10
    endloop
  endfacet
  facet normal 0.207912 -0.978148 0
    outer loop
      vertex -4.18114 39.7809 -22.5
      vertex -4.18114 39.7809 10
      vertex -12.3607 38.0423 10
    endloop
  endfacet
  facet normal 0.207912 -0.978148 0
    outer loop
      vertex -12.3607 38.0423 -22.5
      vertex -4.18114 39.7809 -22.5
      vertex -12.3607 38.0423 10
    endloop
  endfacet
  facet normal 0 -1 0
    outer loop
      vertex 4.18114 39.7809 -22.5
      vertex 4.18114 39.7809 10
      vertex -4.18114 39.7809 10
    endloop
  endfacet
  facet normal 0 -1 0
    outer loop
      vertex -4.18114 39.7809 -22.5
      vertex 4.18114 39.7809 -22.5
      vertex -4.18114 39.7809 10
    endloop
  endfacet
  facet normal -0.207912 -0.978148 0
    outer loop
      vertex 12.3607 38.0423 -22.5
      vertex 12.3607 38.0423 10
      vertex 4.18114 39.7809 10
    endloop
  endfacet
  facet normal -0.207912 -0.978148 0
    outer loop
      vertex 4.18114 39.7809 -22.5
      vertex 12.3607 38.0423 -22.5
      vertex 4.18114 39.7809 10
    endloop
  endfacet
  facet normal -0.406737 -0.913545 0
    outer loop
      vertex 20 34.641 -22.5
      vertex 20 34.641 10
      vertex 12.3607 38.0423 10
    endloop
  endfacet
  facet normal -0.406737 -0.913545 0
    outer loop
      vertex 12.3607 38.0423 -22.5
      vertex 20 34.641 -22.5
      vertex 12.3607 38.0423 10
    endloop
  endfacet
  facet normal -0.587785 -0.809017 0
    outer loop
      vertex 26.7652 29.7258 -22.5
      vertex 26.7652 29.7258 10
      vertex 20 34.641 10
    endloop
  endfacet
  facet normal -0.587785 -0.809017 0
    outer loop
      vertex 20 34.641 -22.5
      vertex 26.7652 29.7258 -22.5
      vertex 20 34.641 10
    endloop
  endfacet
  facet normal -0.743145 -0.669131 0
    outer loop
      vertex 32.3607 23.5114 10
      vertex 26.7652 29.7258 10
      vertex 32.3607 23.5114 -22.5
    endloop
  endfacet
  facet normal -0.743145 -0.669131 0
    outer loop
      vertex 32.3607 23.5114 -22.5
      vertex 26.7652 29.7258 10
      vertex 26.7652 29.7258 -22.5
    endloop
  endfacet
  facet normal -0.866025 -0.5 0
    outer loop
      vertex 36.5418 16.2695 10
      vertex 32.3607 23.5114 10
      vertex 36.5418 16.2695 -22.5
    endloop
  endfacet
  facet normal -0.866025 -0.5 0
    outer loop
      vertex 36.5418 16.2695 -22.5
      vertex 32.3607 23.5114 10
      vertex 32.3607 23.5114 -22.5
    endloop
  endfacet
  facet normal -0.951057 -0.309017 0
    outer loop
      vertex 39.1259 8.31647 10
      vertex 36.5418 16.2695 10
      vertex 39.1259 8.31647 -22.5
    endloop
  endfacet
  facet normal -0.951057 -0.309017 0
    outer loop
      vertex 39.1259 8.31647 -22.5
      vertex 36.5418 16.2695 10
      vertex 36.5418 16.2695 -22.5
    endloop
  endfacet
  facet normal -0.994522 -0.104528 0
    outer loop
      vertex 40 0 10
      vertex 39.1259 8.31647 10
      vertex 40 0 -22.5
    endloop
  endfacet
  facet normal -0.994522 -0.104528 0
    outer loop
      vertex 40 0 -22.5
      vertex 39.1259 8.31647 10
      vertex 39.1259 8.31647 -22.5
    endloop
  endfacet
  facet normal -0.994522 0.104528 0
    outer loop
      vertex 40 0 10
      vertex 40 0 -22.5
      vertex 39.1259 -8.31647 10
    endloop
  endfacet
  facet normal -0.994522 0.104528 0
    outer loop
      vertex 39.1259 -8.31647 10
      vertex 40 0 -22.5
      vertex 39.1259 -8.31647 -22.5
    endloop
  endfacet
  facet normal -0.951057 0.309017 0
    outer loop
      vertex 39.1259 -8.31647 10
      vertex 39.1259 -8.31647 -22.5
      vertex 36.5418 -16.2695 10
    endloop
  endfacet
  facet normal -0.951057 0.309017 0
    outer loop
      vertex 36.5418 -16.2695 10
      vertex 39.1259 -8.31647 -22.5
      vertex 36.5418 -16.2695 -22.5
    endloop
  endfacet
  facet normal -0.866025 0.5 0
    outer loop
      vertex 36.5418 -16.2695 10
      vertex 36.5418 -16.2695 -22.5
      vertex 32.3607 -23.5114 10
    endloop
  endfacet
  facet normal -0.866025 0.5 0
    outer loop
      vertex 32.3607 -23.5114 10
      vertex 36.5418 -16.2695 -22.5
      vertex 32.3607 -23.5114 -22.5
    endloop
  endfacet
  facet normal -0.743145 0.669131 0
    outer loop
      vertex 32.3607 -23.5114 10
      vertex 32.3607 -23.5114 -22.5
      vertex 26.7652 -29.7258 10
    endloop
  endfacet
  facet normal -0.743145 0.669131 0
    outer loop
      vertex 26.7652 -29.7258 10
      vertex 32.3607 -23.5114 -22.5
      vertex 26.7652 -29.7258 -22.5
    endloop
  endfacet
  facet normal -0.587785 0.809017 0
    outer loop
      vertex 26.7652 -29.7258 10
      vertex 26.7652 -29.7258 -22.5
      vertex 20 -34.641 10
    endloop
  endfacet
  facet normal -0.587785 0.809017 0
    outer loop
      vertex 20 -34.641 10
      vertex 26.7652 -29.7258 -22.5
      vertex 20 -34.641 -22.5
    endloop
  endfacet
  facet normal -0.406737 0.913545 0
    outer loop
      vertex 20 -34.641 10
      vertex 20 -34.641 -22.5
      vertex 12.3607 -38.0423 10
    endloop
  endfacet
  facet normal -0.406737 0.913545 0
    outer loop
      vertex 12.3607 -38.0423 10
      vertex 20 -34.641 -22.5
      vertex 12.3607 -38.0423 -22.5
    endloop
  endfacet
  facet normal -0.207912 0.978148 0
    outer loop
      vertex 12.3607 -38.0423 10
      vertex 12.3607 -38.0423 -22.5
      vertex 4.18114 -39.7809 10
    endloop
  endfacet
  facet normal -0.207912 0.978148 0
    outer loop
      vertex 4.18114 -39.7809 10
      vertex 12.3607 -38.0423 -22.5
      vertex 4.18114 -39.7809 -22.5
    endloop
  endfacet
  facet normal 0 1 0
    outer loop
      vertex 4.18114 -39.7809 10
      vertex 4.18114 -39.7809 -22.5
      vertex -4.18114 -39.7809 10
    endloop
  endfacet
  facet normal 0 1 0
    outer loop
      vertex -4.18114 -39.7809 10
      vertex 4.18114 -39.7809 -22.5
      vertex -4.18114 -39.7809 -22.5
    endloop
  endfacet
  facet normal 0.207912 0.978148 0
    outer loop
      vertex -4.18114 -39.7809 10
      vertex -4.18114 -39.7809 -22.5
      vertex -12.3607 -38.0423 10
    endloop
  endfacet
  facet normal 0.207912 0.978148 0
    outer loop
      vertex -12.3607 -38.0423 10
      vertex -4.18114 -39.7809 -22.5
      vertex -12.3607 -38.0423 -22.5
    endloop
  endfacet
  facet normal 0.406737 0.913545 0
    outer loop
      vertex -12.3607 -38.0423 10
      vertex -12.3607 -38.0423 -22.5
      vertex -20 -34.641 10
    endloop
  endfacet
  facet normal 0.406737 0.913545 0
    outer loop
      vertex -20 -34.641 10
      vertex -12.3607 -38.0423 -22.5
      vertex -20 -34.641 -22.5
    endloop
  endfacet
  facet normal 0.587785 0.809017 0
    outer loop
      vertex -20 -34.641 10
      vertex -20 -34.641 -22.5
      vertex -26.7652 -29.7258 10
    endloop
  endfacet
  facet normal 0.587785 0.809017 0
    outer loop
      vertex -26.7652 -29.7258 10
      vertex -20 -34.641 -22.5
      vertex -26.7652 -29.7258 -22.5
    endloop
  endfacet
  facet normal 0.743145 0.669131 0
    outer loop
      vertex -32.3607 -23.5114 10
      vertex -26.7652 -29.7258 10
      vertex -26.7652 -29.7258 -22.5
    endloop
  endfacet
  facet normal 0.743145 0.669131 0
    outer loop
      vertex -32.3607 -23.5114 -22.5
      vertex -32.3607 -23.5114 10
      vertex -26.7652 -29.7258 -22.5
    endloop
  endfacet
  facet normal 0.866025 0.5 0
    outer loop
      vertex -36.5418 -16.2695 10
      vertex -32.3607 -23.5114 10
      vertex -32.3607 -23.5114 -22.5
    endloop
  endfacet
  facet normal 0.866025 0.5 0
    outer loop
      vertex -36.5418 -16.2695 -22.5
      vertex -36.5418 -16.2695 10
      vertex -32.3607 -23.5114 -22.5
    endloop
  endfacet
  facet normal 0.951057 0.309017 0
    outer loop
      vertex -39.1259 -8.31647 10
      vertex -36.5418 -16.2695 10
      vertex -36.5418 -16.2695 -22.5
    endloop
  endfacet
  facet normal 0.951057 0.309017 0
    outer loop
      vertex -39.1259 -8.31647 -22.5
      vertex -39.1259 -8.31647 10
      vertex -36.5418 -16.2695 -22.5
    endloop
  endfacet
  facet normal 0.994522 0.104528 0
    outer loop
      vertex -20 0 22.5
      vertex -19.563 -4.15823 22.5
      vertex -19.563 -4.15823 10
    endloop
  endfacet
  facet normal 0.994522 0.104528 0
    outer loop
      vertex -20 0 10
      vertex -20 0 22.5
      vertex -19.563 -4.15823 10
    endloop
  endfacet
  facet normal 0.951057 0.309017 0
    outer loop
      vertex -19.563 -4.15823 22.5
      vertex -18.2709 -8.13473 22.5
      vertex -18.2709 -8.13473 10
    endloop
  endfacet
  facet normal 0.951057 0.309017 0
    outer loop
      vertex -19.563 -4.15823 10
      vertex -19.563 -4.15823 22.5
      vertex -18.2709 -8.13473 10
    endloop
  endfacet
  facet normal 0.866025 0.5 0
    outer loop
      vertex -18.2709 -8.13473 22.5
      vertex -16.1803 -11.7557 22.5
      vertex -16.1803 -11.7557 10
    endloop
  endfacet
  facet normal 0.866025 0.5 0
    outer loop
      vertex -18.2709 -8.13473 10
      vertex -18.2709 -8.13473 22.5
      vertex -16.1803 -11.7557 10
    endloop
  endfacet
  facet normal 0.743145 0.669131 0
    outer loop
      vertex -16.1803 -11.7557 22.5
      vertex -13.3826 -14.8629 22.5
      vertex -13.3826 -14.8629 10
    endloop
  endfacet
  facet normal 0.743145 0.669131 0
    outer loop
      vertex -16.1803 -11.7557 10
      vertex -16.1803 -11.7557 22.5
      vertex -13.3826 -14.8629 10
    endloop
  endfacet
  facet normal 0.587785 0.809017 0
    outer loop
      vertex -10 -17.3205 22.5
      vertex -10 -17.3205 10
      vertex -13.3826 -14.8629 22.5
    endloop
  endfacet
  facet normal 0.587785 0.809017 0
    outer loop
      vertex -13.3826 -14.8629 22.5
      vertex -10 -17.3205 10
      vertex -13.3826 -14.8629 10
    endloop
  endfacet
  facet normal 0.406737 0.913545 0
    outer loop
      vertex -6.18034 -19.0211 22.5
      vertex -6.18034 -19.0211 10
      vertex -10 -17.3205 22.5
    endloop
  endfacet
  facet normal 0.406737 0.913545 0
    outer loop
      vertex -10 -17.3205 22.5
      vertex -6.18034 -19.0211 10
      vertex -10 -17.3205 10
    endloop
  endfacet
  facet normal 0.207912 0.978148 0
    outer loop
      vertex -2.09057 -19.8904 22.5
      vertex -2.09057 -19.8904 10
      vertex -6.18034 -19.0211 22.5
    endloop
  endfacet
  facet normal 0.207912 0.978148 0
    outer loop
      vertex -6.18034 -19.0211 22.5
      vertex -2.09057 -19.8904 10
      vertex -6.18034 -19.0211 10
    endloop
  endfacet
  facet normal 0 1 0
    outer loop
      vertex 2.09057 -19.8904 22.5
      vertex 2.09057 -19.8904 10
      vertex -2.09057 -19.8904 22.5
    endloop
  endfacet
  facet normal 0 1 0
    outer loop
      vertex -2.09057 -19.8904 22.5
      vertex 2.09057 -19.8904 10
      vertex -2.09057 -19.8904 10
    endloop
  endfacet
  facet normal -0.207912 0.978148 0
    outer loop
      vertex 6.18034 -19.0211 22.5
      vertex 6.18034 -19.0211 10
      vertex 2.09057 -19.8904 22.5
    endloop
  endfacet
  facet normal -0.207912 0.978148 0
    outer loop
      vertex 2.09057 -19.8904 22.5
      vertex 6.18034 -19.0211 10
      vertex 2.09057 -19.8904 10
    endloop
  endfacet
  facet normal -0.406737 0.913545 0
    outer loop
      vertex 10 -17.3205 22.5
      vertex 10 -17.3205 10
      vertex 6.18034 -19.0211 22.5
    endloop
  endfacet
  facet normal -0.406737 0.913545 0
    outer loop
      vertex 6.18034 -19.0211 22.5
      vertex 10 -17.3205 10
      vertex 6.18034 -19.0211 10
    endloop
  endfacet
  facet normal -0.587785 0.809017 0
    outer loop
      vertex 13.3826 -14.8629 22.5
      vertex 13.3826 -14.8629 10
      vertex 10 -17.3205 22.5
    endloop
  endfacet
  facet normal -0.587785 0.809017 0
    outer loop
      vertex 10 -17.3205 22.5
      vertex 13.3826 -14.8629 10
      vertex 10 -17.3205 10
    endloop
  endfacet
  facet normal -0.743145 0.669131 0
    outer loop
      vertex 16.1803 -11.7557 22.5
      vertex 16.1803 -11.7557 10
      vertex 13.3826 -14.8629 22.5
    endloop
  endfacet
  facet normal -0.743145 0.669131 0
    outer loop
      vertex 13.3826 -14.8629 22.5
      vertex 16.1803 -11.7557 10
      vertex 13.3826 -14.8629 10
    endloop
  endfacet
  facet normal -0.866025 0.5 0
    outer loop
      vertex 18.2709 -8.13473 22.5
      vertex 18.2709 -8.13473 10
      vertex 16.1803 -11.7557 22.5
    endloop
  endfacet
  facet normal -0.866025 0.5 0
    outer loop
      vertex 16.1803 -11.7557 22.5
      vertex 18.2709 -8.13473 10
      vertex 16.1803 -11.7557 10
    endloop
  endfacet
  facet normal -0.951057 0.309017 0
    outer loop
      vertex 19.563 -4.15823 22.5
      vertex 19.563 -4.15823 10
      vertex 18.2709 -8.13473 22.5
    endloop
  endfacet
  facet normal -0.951057 0.309017 0
    outer loop
      vertex 18.2709 -8.13473 22.5
      vertex 19.563 -4.15823 10
      vertex 18.2709 -8.13473 10
    endloop
  endfacet
  facet normal -0.994522 0.104528 0
    outer loop
      vertex 20 0 22.5
      vertex 20 0 10
      vertex 19.563 -4.15823 22.5
    endloop
  endfacet
  facet normal -0.994522 0.104528 0
    outer loop
      vertex 19.563 -4.15823 22.5
      vertex 20 0 10
      vertex 19.563 -4.15823 10
    endloop
  endfacet
  facet normal -0.994522 -0.104528 0
    outer loop
      vertex 20 0 22.5
      vertex 19.563 4.15823 22.5
      vertex 20 0 10
    endloop
  endfacet
  facet normal -0.994522 -0.104528 0
    outer loop
      vertex 20 0 10
      vertex 19.563 4.15823 22.5
      vertex 19.563 4.15823 10
    endloop
  endfacet
  facet normal -0.951057 -0.309017 0
    outer loop
      vertex 19.563 4.15823 22.5
      vertex 18.2709 8.13473 22.5
      vertex 19.563 4.15823 10
    endloop
  endfacet
  facet normal -0.951057 -0.309017 0
    outer loop
      vertex 19.563 4.15823 10
      vertex 18.2709 8.13473 22.5
      vertex 18.2709 8.13473 10
    endloop
  endfacet
  facet normal -0.866025 -0.5 0
    outer loop
      vertex 18.2709 8.13473 22.5
      vertex 16.1803 11.7557 22.5
      vertex 18.2709 8.13473 10
    endloop
  endfacet
  facet normal -0.866025 -0.5 0
    outer loop
      vertex 18.2709 8.13473 10
      vertex 16.1803 11.7557 22.5
      vertex 16.1803 11.7557 10
    endloop
  endfacet
  facet normal -0.743145 -0.669131 0
    outer loop
      vertex 16.1803 11.7557 22.5
      vertex 13.3826 14.8629 22.5
      vertex 16.1803 11.7557 10
    endloop
  endfacet
  facet normal -0.743145 -0.669131 0
    outer loop
      vertex 16.1803 11.7557 10
      vertex 13.3826 14.8629 22.5
      vertex 13.3826 14.8629 10
    endloop
  endfacet
  facet normal -0.587785 -0.809017 0
    outer loop
      vertex 13.3826 14.8629 10
      vertex 13.3826 14.8629 22.5
      vertex 10 17.3205 22.5
    endloop
  endfacet
  facet normal -0.587785 -0.809017 0
    outer loop
      vertex 10 17.3205 10
      vertex 13.3826 14.8629 10
      vertex 10 17.3205 22.5
    endloop
  endfacet
  facet normal -0.406737 -0.913545 0
    outer loop
      vertex 10 17.3205 10
      vertex 10 17.3205 22.5
      vertex 6.18034 19.0211 22.5
    endloop
  endfacet
  facet normal -0.406737 -0.913545 0
    outer loop
      vertex 6.18034 19.0211 10
      vertex 10 17.3205 10
      vertex 6.18034 19.0211 22.5
    endloop
  endfacet
  facet normal -0.207912 -0.978148 0
    outer loop
      vertex 6.18034 19.0211 10
      vertex 6.18034 19.0211 22.5
      vertex 2.09057 19.8904 22.5
    endloop
  endfacet
  facet normal -0.207912 -0.978148 0
    outer loop
      vertex 2.09057 19.8904 10
      vertex 6.18034 19.0211 10
      vertex 2.09057 19.8904 22.5
    endloop
  endfacet
  facet normal 0 -1 0
    outer loop
      vertex 2.09057 19.8904 10
      vertex 2.09057 19.8904 22.5
      vertex -2.09057 19.8904 22.5
    endloop
  endfacet
  facet normal 0 -1 0
    outer loop
      vertex -2.09057 19.8904 10
      vertex 2.09057 19.8904 10
      vertex -2.09057 19.8904 22.5
    endloop
  endfacet
  facet normal 0.207912 -0.978148 0
    outer loop
      vertex -2.09057 19.8904 10
      vertex -2.09057 19.8904 22.5
      vertex -6.18034 19.0211 22.5
    endloop
  endfacet
  facet normal 0.207912 -0.978148 0
    outer loop
      vertex -6.18034 19.0211 10
      vertex -2.09057 19.8904 10
      vertex -6.18034 19.0211 22.5
    endloop
  endfacet
  facet normal 0.406737 -0.913545 0
    outer loop
      vertex -6.18034 19.0211 10
      vertex -6.18034 19.0211 22.5
      vertex -10 17.3205 22.5
    endloop
  endfacet
  facet normal 0.406737 -0.913545 0
    outer loop
      vertex -10 17.3205 10
      vertex -6.18034 19.0211 10
      vertex -10 17.3205 22.5
    endloop
  endfacet
  facet normal 0.587785 -0.809017 0
    outer loop
      vertex -10 17.3205 10
      vertex -10 17.3205 22.5
      vertex -13.3826 14.8629 22.5
    endloop
  endfacet
  facet normal 0.587785 -0.809017 0
    outer loop
      vertex -13.3826 14.8629 10
      vertex -10 17.3205 10
      vertex -13.3826 14.8629 22.5
    endloop
  endfacet
  facet normal 0.743145 -0.669131 0
    outer loop
      vertex -13.3826 14.8629 10
      vertex -13.3826 14.8629 22.5
      vertex -16.1803 11.7557 22.5
    endloop
  endfacet
  facet normal 0.743145 -0.669131 0
    outer loop
      vertex -16.1803 11.7557 10
      vertex -13.3826 14.8629 10
      vertex -16.1803 11.7557 22.5
    endloop
  endfacet
  facet normal 0.866025 -0.5 0
    outer loop
      vertex -16.1803 11.7557 10
      vertex -16.1803 11.7557 22.5
      vertex -18.2709 8.13473 22.5
    endloop
  endfacet
  facet normal 0.866025 -0.5 0
    outer loop
      vertex -18.2709 8.13473 10
      vertex -16.1803 11.7557 10
      vertex -18.2709 8.13473 22.5
    endloop
  endfacet
  facet normal 0.951057 -0.309017 0
    outer loop
      vertex -18.2709 8.13473 10
      vertex -18.2709 8.13473 22.5
      vertex -19.563 4.15823 22.5
    endloop
  endfacet
  facet normal 0.951057 -0.309017 0
    outer loop
      vertex -19.563 4.15823 10
      vertex -18.2709 8.13473 10
      vertex -19.563 4.15823 22.5
    endloop
  endfacet
  facet normal 0.994522 -0.104528 0
    outer loop
      vertex -19.563 4.15823 10
      vertex -19.563 4.15823 22.5
      vertex -20 0 22.5
    endloop
  endfacet
  facet normal 0.994522 -0.104528 0
    outer loop
      vertex -20 0 10
      vertex -19.563 4.15823 10
      vertex -20 0 22.5
    endloop
  endfacet
  facet normal 0 0 -1
    outer loop
      vertex -36.5418 16.2695 10
      vertex -32.3607 23.5114 10
      vertex -39.1259 8.31647 10
    endloop
  endfacet
  facet normal 0 0 -1
    outer loop
      vertex -39.1259 8.31647 10
      vertex -32.3607 23.5114 10
      vertex -26.7652 29.7258 10
    endloop
  endfacet
  facet normal 0 0 -1
    outer loop
      vertex -39.1259 8.31647 10
      vertex -26.7652 29.7258 10
      vertex -20 34.641 10
    endloop
  endfacet
  facet normal 0 0 -1
    outer loop
      vertex -39.1259 8.31647 10
      vertex -20 34.641 10
      vertex -12.3607 38.0423 10
    endloop
  endfacet
  facet normal 0 0 -1
    outer loop
      vertex -39.1259 8.31647 10
      vertex -12.3607 38.0423 10
      vertex -4.18114 39.7809 10
    endloop
  endfacet
  facet normal 0 0 -1
    outer loop
      vertex -39.1259 8.31647 10
      vertex -4.18114 39.7809 10
      vertex 4.18114 39.7809 10
    endloop
  endfacet
  facet normal 0 0 -1
    outer loop
      vertex -39.1259 8.31647 10
      vertex 4.18114 39.7809 10
      vertex 12.3607 38.0423 10
    endloop
  endfacet
  facet normal 0 0 -1
    outer loop
      vertex -39.1259 8.31647 10
      vertex 12.3607 38.0423 10
      vertex 20 34.641 10
    endloop
  endfacet
  facet normal 0 0 -1
    outer loop
      vertex -39.1259 8.31647 10
      vertex 20 34.641 10
      vertex 26.7652 29.7258 10
    endloop
  endfacet
  facet normal 0 0 -1
    outer loop
      vertex 6.18034 19.0211 10
      vertex 26.7652 29.7258 10
      vertex 32.3607 23.5114 10
    endloop
  endfacet
  facet normal 0 0 -1
    outer loop
      vertex 13.3826 14.8629 10
      vertex 32.3607 23.5114 10
      vertex 36.5418 16.2695 10
    endloop
  endfacet
  facet normal 0 0 -1
    outer loop
      vertex 16.1803 11.7557 10
      vertex 36.5418 16.2695 10
      vertex 39.1259 8.31647 10
    endloop
  endfacet
  facet normal 0 0 -1
    outer loop
      vertex 19.563 4.15823 10
      vertex 39.1259 8.31647 10
      vertex 40 0 10
    endloop
  endfacet
  facet normal 0 0 -1
    outer loop
      vertex 20 0 10
      vertex 40 0 10
      vertex 19.563 -4.15823 10
    endloop
  endfacet
  facet normal 0 0 -1
    outer loop
      vertex 18.2709 -8.13473 10
      vertex 39.1259 -8.31647 10
      vertex 36.5418 -16.2695 10
    endloop
  endfacet
  facet normal 0 0 -1
    outer loop
      vertex 13.3826 -14.8629 10
      vertex 36.5418 -16.2695 10
      vertex 32.3607 -23.5114 10
    endloop
  endfacet
  facet normal 0 0 -1
    outer loop
      vertex 10 -17.3205 10
      vertex 32.3607 -23.5114 10
      vertex 26.7652 -29.7258 10
    endloop
  endfacet
  facet normal 0 0 -1
    outer loop
      vertex 2.09057 -19.8904 10
      vertex 26.7652 -29.7258 10
      vertex 20 -34.641 10
    endloop
  endfacet
  facet normal 0 0 -1
    outer loop
      vertex -6.18034 -19.0211 10
      vertex 20 -34.641 10
      vertex 12.3607 -38.0423 10
    endloop
  endfacet
  facet normal 0 0 -1
    outer loop
      vertex -13.3826 -14.8629 10
      vertex 12.3607 -38.0423 10
      vertex 4.18114 -39.7809 10
    endloop
  endfacet
  facet normal 0 0 -1
    outer loop
      vertex -39.1259 8.31647 10
      vertex 4.18114 -39.7809 10
      vertex -4.18114 -39.7809 10
    endloop
  endfacet
  facet normal 0 0 -1
    outer loop
      vertex -39.1259 8.31647 10
      vertex -4.18114 -39.7809 10
      vertex -12.3607 -38.0423 10
    endloop
  endfacet
  facet normal 0 0 -1
    outer loop
      vertex -39.1259 8.31647 10
      vertex -12.3607 -38.0423 10
      vertex -20 -34.641 10
    endloop
  endfacet
  facet normal 0 0 -1
    outer loop
      vertex -39.1259 8.31647 10
      vertex -20 -34.641 10
      vertex -26.7652 -29.7258 10
    endloop
  endfacet
  facet normal 0 0 -1
    outer loop
      vertex -39.1259 8.31647 10
      vertex -26.7652 -29.7258 10
      vertex -32.3607 -23.5114 10
    endloop
  endfacet
  facet normal 0 0 -1
    outer loop
      vertex -39.1259 8.31647 10
      vertex -32.3607 -23.5114 10
      vertex -36.5418 -16.2695 10
    endloop
  endfacet
  facet normal 0 0 -1
    outer loop
      vertex -39.1259 8.31647 10
      vertex -36.5418 -16.2695 10
      vertex -39.1259 -8.31647 10
    endloop
  endfacet
  facet normal 0 0 -1
    outer loop
      vertex -39.1259 8.31647 10
      vertex -39.1259 -8.31647 10
      vertex -40 0 10
    endloop
  endfacet
  facet normal 0 0 -1
    outer loop
      vertex -18.2709 -8.13473 10
      vertex -39.1259 8.31647 10
      vertex -19.563 -4.15823 10
    endloop
  endfacet
  facet normal 0 0 -1
    outer loop
      vertex -13.3826 -14.8629 10
      vertex -39.1259 8.31647 10
      vertex -16.1803 -11.7557 10
    endloop
  endfacet
  facet normal 0 0 -1
    outer loop
      vertex -39.1259 8.31647 10
      vertex -18.2709 -8.13473 10
      vertex -16.1803 -11.7557 10
    endloop
  endfacet
  facet normal 0 0 -1
    outer loop
      vertex -10 -17.3205 10
      vertex 12.3607 -38.0423 10
      vertex -13.3826 -14.8629 10
    endloop
  endfacet
  facet normal 0 0 -1
    outer loop
      vertex -39.1259 8.31647 10
      vertex -13.3826 -14.8629 10
      vertex 4.18114 -39.7809 10
    endloop
  endfacet
  facet normal 0 0 -1
    outer loop
      vertex -6.18034 -19.0211 10
      vertex 12.3607 -38.0423 10
      vertex -10 -17.3205 10
    endloop
  endfacet
  facet normal 0 0 -1
    outer loop
      vertex -2.09057 -19.8904 10
      vertex 20 -34.641 10
      vertex -6.18034 -19.0211 10
    endloop
  endfacet
  facet normal 0 0 -1
    outer loop
      vertex 2.09057 -19.8904 10
      vertex 20 -34.641 10
      vertex -2.09057 -19.8904 10
    endloop
  endfacet
  facet normal 0 0 -1
    outer loop
      vertex 6.18034 -19.0211 10
      vertex 26.7652 -29.7258 10
      vertex 2.09057 -19.8904 10
    endloop
  endfacet
  facet normal 0 0 -1
    outer loop
      vertex 10 -17.3205 10
      vertex 26.7652 -29.7258 10
      vertex 6.18034 -19.0211 10
    endloop
  endfacet
  facet normal 0 0 -1
    outer loop
      vertex 16.1803 -11.7557 10
      vertex 36.5418 -16.2695 10
      vertex 13.3826 -14.8629 10
    endloop
  endfacet
  facet normal 0 0 -1
    outer loop
      vertex 19.563 -4.15823 10
      vertex 39.1259 -8.31647 10
      vertex 18.2709 -8.13473 10
    endloop
  endfacet
  facet normal 0 0 -1
    outer loop
      vertex 19.563 4.15823 10
      vertex 40 0 10
      vertex 20 0 10
    endloop
  endfacet
  facet normal 0 0 -1
    outer loop
      vertex 40 0 10
      vertex 39.1259 -8.31647 10
      vertex 19.563 -4.15823 10
    endloop
  endfacet
  facet normal 0 0 -1
    outer loop
      vertex -20 0 10
      vertex -39.1259 8.31647 10
      vertex -19.563 4.15823 10
    endloop
  endfacet
  facet normal 0 0 -1
    outer loop
      vertex 18.2709 8.13473 10
      vertex 39.1259 8.31647 10
      vertex 19.563 4.15823 10
    endloop
  endfacet
  facet normal 0 0 -1
    outer loop
      vertex 16.1803 11.7557 10
      vertex 39.1259 8.31647 10
      vertex 18.2709 8.13473 10
    endloop
  endfacet
  facet normal 0 0 -1
    outer loop
      vertex 13.3826 14.8629 10
      vertex 36.5418 16.2695 10
      vertex 16.1803 11.7557 10
    endloop
  endfacet
  facet normal 0 0 -1
    outer loop
      vertex 10 17.3205 10
      vertex 32.3607 23.5114 10
      vertex 13.3826 14.8629 10
    endloop
  endfacet
  facet normal 0 0 -1
    outer loop
      vertex 6.18034 19.0211 10
      vertex 32.3607 23.5114 10
      vertex 10 17.3205 10
    endloop
  endfacet
  facet normal 0 0 -1
    outer loop
      vertex 2.09057 19.8904 10
      vertex 26.7652 29.7258 10
      vertex 6.18034 19.0211 10
    endloop
  endfacet
  facet normal 0 0 -1
    outer loop
      vertex -10 17.3205 10
      vertex -39.1259 8.31647 10
      vertex -6.18034 19.0211 10
    endloop
  endfacet
  facet normal 0 0 -1
    outer loop
      vertex -2.09057 19.8904 10
      vertex 26.7652 29.7258 10
      vertex 2.09057 19.8904 10
    endloop
  endfacet
  facet normal 0 0 -1
    outer loop
      vertex -6.18034 19.0211 10
      vertex 26.7652 29.7258 10
      vertex -2.09057 19.8904 10
    endloop
  endfacet
  facet normal 0 0 -1
    outer loop
      vertex -39.1259 8.31647 10
      vertex 26.7652 29.7258 10
      vertex -6.18034 19.0211 10
    endloop
  endfacet
  facet normal 0 0 -1
    outer loop
      vertex -13.3826 14.8629 10
      vertex -39.1259 8.31647 10
      vertex -10 17.3205 10
    endloop
  endfacet
  facet normal 0 0 -1
    outer loop
      vertex -16.1803 11.7557 10
      vertex -39.1259 8.31647 10
      vertex -13.3826 14.8629 10
    endloop
  endfacet
  facet normal 0 0 -1
    outer loop
      vertex -18.2709 8.13473 10
      vertex -39.1259 8.31647 10
      vertex -16.1803 11.7557 10
    endloop
  endfacet
  facet normal 0 0 -1
    outer loop
      vertex -19.563 4.15823 10
      vertex -39.1259 8.31647 10
      vertex -18.2709 8.13473 10
    endloop
  endfacet
  facet normal 0 0 -1
    outer loop
      vertex -19.563 -4.15823 10
      vertex -39.1259 8.31647 10
      vertex -20 0 10
    endloop
  endfacet
  facet normal 0 0 -1
    outer loop
      vertex 18.2709 -8.13473 10
      vertex 36.5418 -16.2695 10
      vertex 16.1803 -11.7557 10
    endloop
  endfacet
  facet normal 0 0 -1
    outer loop
      vertex 13.3826 -14.8629 10
      vertex 32.3607 -23.5114 10
      vertex 10 -17.3205 10
    endloop
  endfacet
endsolid OpenSCAD_Model
