solid OpenSCAD_Model
  facet normal -1 0 0
    outer loop
      vertex -25 -25 -15
      vertex -25 -25 15
      vertex -25 25 -15
    endloop
  endfacet
  facet normal -1 0 0
    outer loop
      vertex -25 25 -15
      vertex -25 -25 15
      vertex -25 25 15
    endloop
  endfacet
  facet normal 0 -1 0
    outer loop
      vertex -25 -25 15
      vertex -25 -25 -15
      vertex 25 -25 -15
    endloop
  endfacet
  facet normal 0 -1 0
    outer loop
      vertex 25 -25 15
      vertex -25 -25 15
      vertex 25 -25 -15
    endloop
  endfacet
  facet normal 0 0 -1
    outer loop
      vertex 4.63525 14.2658 -15
      vertex -25 25 -15
      vertex 25 25 -15
    endloop
  endfacet
  facet normal 0 0 -1
    outer loop
      vertex -25 -25 -15
      vertex -25 25 -15
      vertex -15 0 -15
    endloop
  endfacet
  facet normal 0 0 -1
    outer loop
      vertex -25 -25 -15
      vertex -15 0 -15
      vertex -14.6722 -3.11867 -15
    endloop
  endfacet
  facet normal 0 0 -1
    outer loop
      vertex -25 -25 -15
      vertex -14.6722 -3.11867 -15
      vertex -13.7032 -6.10105 -15
    endloop
  endfacet
  facet normal 0 0 -1
    outer loop
      vertex -25 -25 -15
      vertex -13.7032 -6.10105 -15
      vertex -12.1353 -8.81678 -15
    endloop
  endfacet
  facet normal 0 0 -1
    outer loop
      vertex -25 -25 -15
      vertex -12.1353 -8.81678 -15
      vertex -10.037 -11.1472 -15
    endloop
  endfacet
  facet normal 0 0 -1
    outer loop
      vertex -25 -25 -15
      vertex -10.037 -11.1472 -15
      vertex -7.5 -12.9904 -15
    endloop
  endfacet
  facet normal 0 0 -1
    outer loop
      vertex -25 -25 -15
      vertex -7.5 -12.9904 -15
      vertex -4.63525 -14.2658 -15
    endloop
  endfacet
  facet normal 0 0 -1
    outer loop
      vertex -25 -25 -15
      vertex -4.63525 -14.2658 -15
      vertex 25 -25 -15
    endloop
  endfacet
  facet normal 0 0 -1
    outer loop
      vertex 1.56793 -14.9178 -15
      vertex 25 -25 -15
      vertex -1.56793 -14.9178 -15
    endloop
  endfacet
  facet normal 0 0 -1
    outer loop
      vertex 4.63525 -14.2658 -15
      vertex 25 -25 -15
      vertex 1.56793 -14.9178 -15
    endloop
  endfacet
  facet normal 0 0 -1
    outer loop
      vertex 7.5 -12.9904 -15
      vertex 25 -25 -15
      vertex 4.63525 -14.2658 -15
    endloop
  endfacet
  facet normal 0 0 -1
    outer loop
      vertex 12.1353 -8.81678 -15
      vertex 25 -25 -15
      vertex 10.037 -11.1472 -15
    endloop
  endfacet
  facet normal 0 0 -1
    outer loop
      vertex 7.5 -12.9904 -15
      vertex 10.037 -11.1472 -15
      vertex 25 -25 -15
    endloop
  endfacet
  facet normal 0 0 -1
    outer loop
      vertex -12.1353 8.81678 -15
      vertex -25 25 -15
      vertex -10.037 11.1472 -15
    endloop
  endfacet
  facet normal 0 0 -1
    outer loop
      vertex 25 -25 -15
      vertex 12.1353 -8.81678 -15
      vertex 13.7032 -6.10105 -15
    endloop
  endfacet
  facet normal 0 0 -1
    outer loop
      vertex 25 -25 -15
      vertex 13.7032 -6.10105 -15
      vertex 25 25 -15
    endloop
  endfacet
  facet normal 0 0 -1
    outer loop
      vertex 13.7032 -6.10105 -15
      vertex 14.6722 -3.11867 -15
      vertex 25 25 -15
    endloop
  endfacet
  facet normal 0 0 -1
    outer loop
      vertex -10.037 11.1472 -15
      vertex -25 25 -15
      vertex -7.5 12.9904 -15
    endloop
  endfacet
  facet normal 0 0 -1
    outer loop
      vertex 1.56793 14.9178 -15
      vertex -25 25 -15
      vertex 4.63525 14.2658 -15
    endloop
  endfacet
  facet normal 0 0 -1
    outer loop
      vertex 15 0 -15
      vertex 14.6722 3.11867 -15
      vertex 25 25 -15
    endloop
  endfacet
  facet normal 0 0 -1
    outer loop
      vertex -7.5 12.9904 -15
      vertex -25 25 -15
      vertex -4.63525 14.2658 -15
    endloop
  endfacet
  facet normal 0 0 -1
    outer loop
      vertex 14.6722 3.11867 -15
      vertex 13.7032 6.10105 -15
      vertex 25 25 -15
    endloop
  endfacet
  facet normal 0 0 -1
    outer loop
      vertex 13.7032 6.10105 -15
      vertex 12.1353 8.81678 -15
      vertex 25 25 -15
    endloop
  endfacet
  facet normal 0 0 -1
    outer loop
      vertex -4.63525 14.2658 -15
      vertex -25 25 -15
      vertex -1.56793 14.9178 -15
    endloop
  endfacet
  facet normal 0 0 -1
    outer loop
      vertex 12.1353 8.81678 -15
      vertex 10.037 11.1472 -15
      vertex 25 25 -15
    endloop
  endfacet
  facet normal 0 0 -1
    outer loop
      vertex -1.56793 14.9178 -15
      vertex -25 25 -15
      vertex 1.56793 14.9178 -15
    endloop
  endfacet
  facet normal 0 0 -1
    outer loop
      vertex 10.037 11.1472 -15
      vertex 7.5 12.9904 -15
      vertex 25 25 -15
    endloop
  endfacet
  facet normal 0 0 -1
    outer loop
      vertex 7.5 12.9904 -15
      vertex 4.63525 14.2658 -15
      vertex 25 25 -15
    endloop
  endfacet
  facet normal 0 0 -1
    outer loop
      vertex 15 0 -15
      vertex 25 25 -15
      vertex 14.6722 -3.11867 -15
    endloop
  endfacet
  facet normal 0 0 -1
    outer loop
      vertex -13.7032 6.10105 -15
      vertex -25 25 -15
      vertex -12.1353 8.81678 -15
    endloop
  endfacet
  facet normal 0 0 -1
    outer loop
      vertex -14.6722 3.11867 -15
      vertex -25 25 -15
      vertex -13.7032 6.10105 -15
    endloop
  endfacet
  facet normal 0 0 -1
    outer loop
      vertex -15 0 -15
      vertex -25 25 -15
      vertex -14.6722 3.11867 -15
    endloop
  endfacet
  facet normal 0 0 -1
    outer loop
      vertex -1.56793 -14.9178 -15
      vertex 25 -25 -15
      vertex -4.63525 -14.2658 -15
    endloop
  endfacet
  facet normal 0 1 0
    outer loop
      vertex -25 25 -15
      vertex -25 25 15
      vertex 25 25 -15
    endloop
  endfacet
  facet normal 0 1 0
    outer loop
      vertex 25 25 -15
      vertex -25 25 15
      vertex 25 25 15
    endloop
  endfacet
  facet normal 0 0 1
    outer loop
      vertex -0.964293 -7.94167 15
      vertex -25 -25 15
      vertex 25 -25 15
    endloop
  endfacet
  facet normal 0 0 1
    outer loop
      vertex 7.08365 3.71778 15
      vertex 7.76753 1.91452 15
      vertex 25 -25 15
    endloop
  endfacet
  facet normal 0 0 1
    outer loop
      vertex -25 25 15
      vertex -25 -25 15
      vertex -7.76753 -1.91452 15
    endloop
  endfacet
  facet normal 0 0 1
    outer loop
      vertex 0.964293 -7.94167 15
      vertex -0.964293 -7.94167 15
      vertex 25 -25 15
    endloop
  endfacet
  facet normal 0 0 1
    outer loop
      vertex -25 25 15
      vertex -7.76753 -1.91452 15
      vertex -8 0 15
    endloop
  endfacet
  facet normal 0 0 1
    outer loop
      vertex 2.83684 -7.48013 15
      vertex 0.964293 -7.94167 15
      vertex 25 -25 15
    endloop
  endfacet
  facet normal 0 0 1
    outer loop
      vertex -25 25 15
      vertex -8 0 15
      vertex -7.76753 1.91452 15
    endloop
  endfacet
  facet normal 0 0 1
    outer loop
      vertex -25 25 15
      vertex -7.76753 1.91452 15
      vertex -7.08365 3.71778 15
    endloop
  endfacet
  facet normal 0 0 1
    outer loop
      vertex 8 0 15
      vertex 7.76753 -1.91452 15
      vertex 25 -25 15
    endloop
  endfacet
  facet normal 0 0 1
    outer loop
      vertex -25 25 15
      vertex -7.08365 3.71778 15
      vertex -5.98809 5.30498 15
    endloop
  endfacet
  facet normal 0 0 1
    outer loop
      vertex 5.98809 -5.30498 15
      vertex 4.54452 -6.58387 15
      vertex 25 -25 15
    endloop
  endfacet
  facet normal 0 0 1
    outer loop
      vertex 25 25 15
      vertex -25 25 15
      vertex -4.54452 6.58387 15
    endloop
  endfacet
  facet normal 0 0 1
    outer loop
      vertex 4.54452 -6.58387 15
      vertex 2.83684 -7.48013 15
      vertex 25 -25 15
    endloop
  endfacet
  facet normal 0 0 1
    outer loop
      vertex 25 25 15
      vertex -4.54452 6.58387 15
      vertex -2.83684 7.48013 15
    endloop
  endfacet
  facet normal 0 0 1
    outer loop
      vertex 25 25 15
      vertex -2.83684 7.48013 15
      vertex -0.964293 7.94167 15
    endloop
  endfacet
  facet normal 0 0 1
    outer loop
      vertex 7.76753 -1.91452 15
      vertex 7.08365 -3.71778 15
      vertex 25 -25 15
    endloop
  endfacet
  facet normal 0 0 1
    outer loop
      vertex 25 25 15
      vertex -0.964293 7.94167 15
      vertex 0.964293 7.94167 15
    endloop
  endfacet
  facet normal 0 0 1
    outer loop
      vertex 7.08365 -3.71778 15
      vertex 5.98809 -5.30498 15
      vertex 25 -25 15
    endloop
  endfacet
  facet normal 0 0 1
    outer loop
      vertex 25 25 15
      vertex 0.964293 7.94167 15
      vertex 2.83684 7.48013 15
    endloop
  endfacet
  facet normal 0 0 1
    outer loop
      vertex 25 25 15
      vertex 2.83684 7.48013 15
      vertex 4.54452 6.58387 15
    endloop
  endfacet
  facet normal 0 0 1
    outer loop
      vertex 7.76753 1.91452 15
      vertex 8 0 15
      vertex 25 -25 15
    endloop
  endfacet
  facet normal 0 0 1
    outer loop
      vertex 25 25 15
      vertex 4.54452 6.58387 15
      vertex 5.98809 5.30498 15
    endloop
  endfacet
  facet normal 0 0 1
    outer loop
      vertex 25 25 15
      vertex 7.08365 3.71778 15
      vertex 25 -25 15
    endloop
  endfacet
  facet normal 0 0 1
    outer loop
      vertex 25 25 15
      vertex 5.98809 5.30498 15
      vertex 7.08365 3.71778 15
    endloop
  endfacet
  facet normal 0 0 1
    outer loop
      vertex -2.83684 -7.48013 15
      vertex -25 -25 15
      vertex -0.964293 -7.94167 15
    endloop
  endfacet
  facet normal 0 0 1
    outer loop
      vertex -4.54452 -6.58387 15
      vertex -25 -25 15
      vertex -2.83684 -7.48013 15
    endloop
  endfacet
  facet normal 0 0 1
    outer loop
      vertex -5.98809 -5.30498 15
      vertex -25 -25 15
      vertex -4.54452 -6.58387 15
    endloop
  endfacet
  facet normal 0 0 1
    outer loop
      vertex -7.08365 -3.71778 15
      vertex -25 -25 15
      vertex -5.98809 -5.30498 15
    endloop
  endfacet
  facet normal 0 0 1
    outer loop
      vertex -7.76753 -1.91452 15
      vertex -25 -25 15
      vertex -7.08365 -3.71778 15
    endloop
  endfacet
  facet normal 0 0 1
    outer loop
      vertex -5.98809 5.30498 15
      vertex -4.54452 6.58387 15
      vertex -25 25 15
    endloop
  endfacet
  facet normal 1 0 0
    outer loop
      vertex 25 -25 15
      vertex 25 -25 -15
      vertex 25 25 -15
    endloop
  endfacet
  facet normal 1 0 0
    outer loop
      vertex 25 25 15
      vertex 25 -25 15
      vertex 25 25 -15
    endloop
  endfacet
  facet normal 0.994522 -0.104528 0
    outer loop
      vertex -14.6722 3.11867 -15
      vertex -14.6722 3.11867 10
      vertex -15 0 10
    endloop
  endfacet
  facet normal 0.994522 -0.104528 0
    outer loop
      vertex -15 0 -15
      vertex -14.6722 3.11867 -15
      vertex -15 0 10
    endloop
  endfacet
  facet normal 0.994522 0.104528 0
    outer loop
      vertex -15 0 10
      vertex -14.6722 -3.11867 10
      vertex -14.6722 -3.11867 -15
    endloop
  endfacet
  facet normal 0.994522 0.104528 0
    outer loop
      vertex -15 0 -15
      vertex -15 0 10
      vertex -14.6722 -3.11867 -15
    endloop
  endfacet
  facet normal 0.951057 -0.309017 0
    outer loop
      vertex -13.7032 6.10105 -15
      vertex -13.7032 6.10105 10
      vertex -14.6722 3.11867 10
    endloop
  endfacet
  facet normal 0.951057 -0.309017 0
    outer loop
      vertex -14.6722 3.11867 -15
      vertex -13.7032 6.10105 -15
      vertex -14.6722 3.11867 10
    endloop
  endfacet
  facet normal 0.866025 -0.5 0
    outer loop
      vertex -12.1353 8.81678 -15
      vertex -12.1353 8.81678 10
      vertex -13.7032 6.10105 10
    endloop
  endfacet
  facet normal 0.866025 -0.5 0
    outer loop
      vertex -13.7032 6.10105 -15
      vertex -12.1353 8.81678 -15
      vertex -13.7032 6.10105 10
    endloop
  endfacet
  facet normal 0.743145 -0.669131 0
    outer loop
      vertex -10.037 11.1472 -15
      vertex -10.037 11.1472 10
      vertex -12.1353 8.81678 10
    endloop
  endfacet
  facet normal 0.743145 -0.669131 0
    outer loop
      vertex -12.1353 8.81678 -15
      vertex -10.037 11.1472 -15
      vertex -12.1353 8.81678 10
    endloop
  endfacet
  facet normal 0.587785 -0.809017 0
    outer loop
      vertex -7.5 12.9904 -15
      vertex -7.5 12.9904 10
      vertex -10.037 11.1472 10
    endloop
  endfacet
  facet normal 0.587785 -0.809017 0
    outer loop
      vertex -10.037 11.1472 -15
      vertex -7.5 12.9904 -15
      vertex -10.037 11.1472 10
    endloop
  endfacet
  facet normal 0.406737 -0.913545 0
    outer loop
      vertex -4.63525 14.2658 -15
      vertex -4.63525 14.2658 10
      vertex -7.5 12.9904 10
    endloop
  endfacet
  facet normal 0.406737 -0.913545 0
    outer loop
      vertex -7.5 12.9904 -15
      vertex -4.63525 14.2658 -15
      vertex -7.5 12.9904 10
    endloop
  endfacet
  facet normal 0.207911 -0.978148 0
    outer loop
      vertex -1.56793 14.9178 -15
      vertex -1.56793 14.9178 10
      vertex -4.63525 14.2658 10
    endloop
  endfacet
  facet normal 0.207911 -0.978148 0
    outer loop
      vertex -4.63525 14.2658 -15
      vertex -1.56793 14.9178 -15
      vertex -4.63525 14.2658 10
    endloop
  endfacet
  facet normal 0 -1 0
    outer loop
      vertex 1.56793 14.9178 -15
      vertex 1.56793 14.9178 10
      vertex -1.56793 14.9178 10
    endloop
  endfacet
  facet normal 0 -1 0
    outer loop
      vertex -1.56793 14.9178 -15
      vertex 1.56793 14.9178 -15
      vertex -1.56793 14.9178 10
    endloop
  endfacet
  facet normal -0.207911 -0.978148 0
    outer loop
      vertex 4.63525 14.2658 -15
      vertex 4.63525 14.2658 10
      vertex 1.56793 14.9178 10
    endloop
  endfacet
  facet normal -0.207911 -0.978148 0
    outer loop
      vertex 1.56793 14.9178 -15
      vertex 4.63525 14.2658 -15
      vertex 1.56793 14.9178 10
    endloop
  endfacet
  facet normal -0.406737 -0.913545 0
    outer loop
      vertex 7.5 12.9904 -15
      vertex 7.5 12.9904 10
      vertex 4.63525 14.2658 10
    endloop
  endfacet
  facet normal -0.406737 -0.913545 0
    outer loop
      vertex 4.63525 14.2658 -15
      vertex 7.5 12.9904 -15
      vertex 4.63525 14.2658 10
    endloop
  endfacet
  facet normal -0.587785 -0.809017 0
    outer loop
      vertex 10.037 11.1472 -15
      vertex 10.037 11.1472 10
      vertex 7.5 12.9904 10
    endloop
  endfacet
  facet normal -0.587785 -0.809017 0
    outer loop
      vertex 7.5 12.9904 -15
      vertex 10.037 11.1472 -15
      vertex 7.5 12.9904 10
    endloop
  endfacet
  facet normal -0.743145 -0.669131 0
    outer loop
      vertex 12.1353 8.81678 10
      vertex 10.037 11.1472 10
      vertex 12.1353 8.81678 -15
    endloop
  endfacet
  facet normal -0.743145 -0.669131 0
    outer loop
      vertex 12.1353 8.81678 -15
      vertex 10.037 11.1472 10
      vertex 10.037 11.1472 -15
    endloop
  endfacet
  facet normal -0.866025 -0.5 0
    outer loop
      vertex 13.7032 6.10105 10
      vertex 12.1353 8.81678 10
      vertex 13.7032 6.10105 -15
    endloop
  endfacet
  facet normal -0.866025 -0.5 0
    outer loop
      vertex 13.7032 6.10105 -15
      vertex 12.1353 8.81678 10
      vertex 12.1353 8.81678 -15
    endloop
  endfacet
  facet normal -0.951057 -0.309017 0
    outer loop
      vertex 14.6722 3.11867 10
      vertex 13.7032 6.10105 10
      vertex 14.6722 3.11867 -15
    endloop
  endfacet
  facet normal -0.951057 -0.309017 0
    outer loop
      vertex 14.6722 3.11867 -15
      vertex 13.7032 6.10105 10
      vertex 13.7032 6.10105 -15
    endloop
  endfacet
  facet normal -0.994522 -0.104528 0
    outer loop
      vertex 15 0 10
      vertex 14.6722 3.11867 10
      vertex 15 0 -15
    endloop
  endfacet
  facet normal -0.994522 -0.104528 0
    outer loop
      vertex 15 0 -15
      vertex 14.6722 3.11867 10
      vertex 14.6722 3.11867 -15
    endloop
  endfacet
  facet normal -0.994522 0.104528 0
    outer loop
      vertex 15 0 10
      vertex 15 0 -15
      vertex 14.6722 -3.11867 10
    endloop
  endfacet
  facet normal -0.994522 0.104528 0
    outer loop
      vertex 14.6722 -3.11867 10
      vertex 15 0 -15
      vertex 14.6722 -3.11867 -15
    endloop
  endfacet
  facet normal -0.951057 0.309017 0
    outer loop
      vertex 14.6722 -3.11867 10
      vertex 14.6722 -3.11867 -15
      vertex 13.7032 -6.10105 10
    endloop
  endfacet
  facet normal -0.951057 0.309017 0
    outer loop
      vertex 13.7032 -6.10105 10
      vertex 14.6722 -3.11867 -15
      vertex 13.7032 -6.10105 -15
    endloop
  endfacet
  facet normal -0.866025 0.5 0
    outer loop
      vertex 13.7032 -6.10105 10
      vertex 13.7032 -6.10105 -15
      vertex 12.1353 -8.81678 10
    endloop
  endfacet
  facet normal -0.866025 0.5 0
    outer loop
      vertex 12.1353 -8.81678 10
      vertex 13.7032 -6.10105 -15
      vertex 12.1353 -8.81678 -15
    endloop
  endfacet
  facet normal -0.743145 0.669131 0
    outer loop
      vertex 12.1353 -8.81678 10
      vertex 12.1353 -8.81678 -15
      vertex 10.037 -11.1472 10
    endloop
  endfacet
  facet normal -0.743145 0.669131 0
    outer loop
      vertex 10.037 -11.1472 10
      vertex 12.1353 -8.81678 -15
      vertex 10.037 -11.1472 -15
    endloop
  endfacet
  facet normal -0.587785 0.809017 0
    outer loop
      vertex 10.037 -11.1472 10
      vertex 10.037 -11.1472 -15
      vertex 7.5 -12.9904 10
    endloop
  endfacet
  facet normal -0.587785 0.809017 0
    outer loop
      vertex 7.5 -12.9904 10
      vertex 10.037 -11.1472 -15
      vertex 7.5 -12.9904 -15
    endloop
  endfacet
  facet normal -0.406737 0.913545 0
    outer loop
      vertex 7.5 -12.9904 10
      vertex 7.5 -12.9904 -15
      vertex 4.63525 -14.2658 10
    endloop
  endfacet
  facet normal -0.406737 0.913545 0
    outer loop
      vertex 4.63525 -14.2658 10
      vertex 7.5 -12.9904 -15
      vertex 4.63525 -14.2658 -15
    endloop
  endfacet
  facet normal -0.207911 0.978148 0
    outer loop
      vertex 4.63525 -14.2658 10
      vertex 4.63525 -14.2658 -15
      vertex 1.56793 -14.9178 10
    endloop
  endfacet
  facet normal -0.207911 0.978148 0
    outer loop
      vertex 1.56793 -14.9178 10
      vertex 4.63525 -14.2658 -15
      vertex 1.56793 -14.9178 -15
    endloop
  endfacet
  facet normal 0 1 0
    outer loop
      vertex 1.56793 -14.9178 10
      vertex 1.56793 -14.9178 -15
      vertex -1.56793 -14.9178 10
    endloop
  endfacet
  facet normal 0 1 0
    outer loop
      vertex -1.56793 -14.9178 10
      vertex 1.56793 -14.9178 -15
      vertex -1.56793 -14.9178 -15
    endloop
  endfacet
  facet normal 0.207911 0.978148 0
    outer loop
      vertex -1.56793 -14.9178 10
      vertex -1.56793 -14.9178 -15
      vertex -4.63525 -14.2658 10
    endloop
  endfacet
  facet normal 0.207911 0.978148 0
    outer loop
      vertex -4.63525 -14.2658 10
      vertex -1.56793 -14.9178 -15
      vertex -4.63525 -14.2658 -15
    endloop
  endfacet
  facet normal 0.406737 0.913545 0
    outer loop
      vertex -4.63525 -14.2658 10
      vertex -4.63525 -14.2658 -15
      vertex -7.5 -12.9904 10
    endloop
  endfacet
  facet normal 0.406737 0.913545 0
    outer loop
      vertex -7.5 -12.9904 10
      vertex -4.63525 -14.2658 -15
      vertex -7.5 -12.9904 -15
    endloop
  endfacet
  facet normal 0.587785 0.809017 0
    outer loop
      vertex -7.5 -12.9904 10
      vertex -7.5 -12.9904 -15
      vertex -10.037 -11.1472 10
    endloop
  endfacet
  facet normal 0.587785 0.809017 0
    outer loop
      vertex -10.037 -11.1472 10
      vertex -7.5 -12.9904 -15
      vertex -10.037 -11.1472 -15
    endloop
  endfacet
  facet normal 0.743145 0.669131 0
    outer loop
      vertex -12.1353 -8.81678 10
      vertex -10.037 -11.1472 10
      vertex -10.037 -11.1472 -15
    endloop
  endfacet
  facet normal 0.743145 0.669131 0
    outer loop
      vertex -12.1353 -8.81678 -15
      vertex -12.1353 -8.81678 10
      vertex -10.037 -11.1472 -15
    endloop
  endfacet
  facet normal 0.866025 0.5 0
    outer loop
      vertex -13.7032 -6.10105 10
      vertex -12.1353 -8.81678 10
      vertex -12.1353 -8.81678 -15
    endloop
  endfacet
  facet normal 0.866025 0.5 0
    outer loop
      vertex -13.7032 -6.10105 -15
      vertex -13.7032 -6.10105 10
      vertex -12.1353 -8.81678 -15
    endloop
  endfacet
  facet normal 0.951057 0.309017 0
    outer loop
      vertex -14.6722 -3.11867 10
      vertex -13.7032 -6.10105 10
      vertex -13.7032 -6.10105 -15
    endloop
  endfacet
  facet normal 0.951057 0.309017 0
    outer loop
      vertex -14.6722 -3.11867 -15
      vertex -14.6722 -3.11867 10
      vertex -13.7032 -6.10105 -15
    endloop
  endfacet
  facet normal 0.992709 0.120536 0
    outer loop
      vertex -8 0 15
      vertex -7.76753 -1.91452 15
      vertex -7.76753 -1.91452 10
    endloop
  endfacet
  facet normal 0.992709 0.120536 0
    outer loop
      vertex -8 0 10
      vertex -8 0 15
      vertex -7.76753 -1.91452 10
    endloop
  endfacet
  facet normal 0.935016 0.354605 0
    outer loop
      vertex -7.76753 -1.91452 15
      vertex -7.08365 -3.71778 15
      vertex -7.08365 -3.71778 10
    endloop
  endfacet
  facet normal 0.935016 0.354605 0
    outer loop
      vertex -7.76753 -1.91452 10
      vertex -7.76753 -1.91452 15
      vertex -7.08365 -3.71778 10
    endloop
  endfacet
  facet normal 0.822984 0.568065 0
    outer loop
      vertex -7.08365 -3.71778 15
      vertex -5.98809 -5.30498 15
      vertex -5.98809 -5.30498 10
    endloop
  endfacet
  facet normal 0.822984 0.568065 0
    outer loop
      vertex -7.08365 -3.71778 10
      vertex -7.08365 -3.71778 15
      vertex -5.98809 -5.30498 10
    endloop
  endfacet
  facet normal 0.663123 0.748511 0
    outer loop
      vertex -4.54452 -6.58387 15
      vertex -4.54452 -6.58387 10
      vertex -5.98809 -5.30498 15
    endloop
  endfacet
  facet normal 0.663123 0.748511 0
    outer loop
      vertex -5.98809 -5.30498 15
      vertex -4.54452 -6.58387 10
      vertex -5.98809 -5.30498 10
    endloop
  endfacet
  facet normal 0.464723 0.885456 0
    outer loop
      vertex -2.83684 -7.48013 15
      vertex -2.83684 -7.48013 10
      vertex -4.54452 -6.58387 15
    endloop
  endfacet
  facet normal 0.464723 0.885456 0
    outer loop
      vertex -4.54452 -6.58387 15
      vertex -2.83684 -7.48013 10
      vertex -4.54452 -6.58387 10
    endloop
  endfacet
  facet normal 0.239316 0.970942 0
    outer loop
      vertex -0.964293 -7.94167 15
      vertex -0.964293 -7.94167 10
      vertex -2.83684 -7.48013 15
    endloop
  endfacet
  facet normal 0.239316 0.970942 0
    outer loop
      vertex -2.83684 -7.48013 15
      vertex -0.964293 -7.94167 10
      vertex -2.83684 -7.48013 10
    endloop
  endfacet
  facet normal 0 1 0
    outer loop
      vertex 0.964293 -7.94167 15
      vertex 0.964293 -7.94167 10
      vertex -0.964293 -7.94167 15
    endloop
  endfacet
  facet normal 0 1 0
    outer loop
      vertex -0.964293 -7.94167 15
      vertex 0.964293 -7.94167 10
      vertex -0.964293 -7.94167 10
    endloop
  endfacet
  facet normal -0.239316 0.970942 0
    outer loop
      vertex 2.83684 -7.48013 15
      vertex 2.83684 -7.48013 10
      vertex 0.964293 -7.94167 15
    endloop
  endfacet
  facet normal -0.239316 0.970942 0
    outer loop
      vertex 0.964293 -7.94167 15
      vertex 2.83684 -7.48013 10
      vertex 0.964293 -7.94167 10
    endloop
  endfacet
  facet normal -0.464723 0.885456 0
    outer loop
      vertex 4.54452 -6.58387 15
      vertex 4.54452 -6.58387 10
      vertex 2.83684 -7.48013 15
    endloop
  endfacet
  facet normal -0.464723 0.885456 0
    outer loop
      vertex 2.83684 -7.48013 15
      vertex 4.54452 -6.58387 10
      vertex 2.83684 -7.48013 10
    endloop
  endfacet
  facet normal -0.663123 0.748511 0
    outer loop
      vertex 5.98809 -5.30498 15
      vertex 5.98809 -5.30498 10
      vertex 4.54452 -6.58387 15
    endloop
  endfacet
  facet normal -0.663123 0.748511 0
    outer loop
      vertex 4.54452 -6.58387 15
      vertex 5.98809 -5.30498 10
      vertex 4.54452 -6.58387 10
    endloop
  endfacet
  facet normal -0.822984 0.568065 0
    outer loop
      vertex 7.08365 -3.71778 15
      vertex 7.08365 -3.71778 10
      vertex 5.98809 -5.30498 15
    endloop
  endfacet
  facet normal -0.822984 0.568065 0
    outer loop
      vertex 5.98809 -5.30498 15
      vertex 7.08365 -3.71778 10
      vertex 5.98809 -5.30498 10
    endloop
  endfacet
  facet normal -0.935016 0.354605 0
    outer loop
      vertex 7.76753 -1.91452 15
      vertex 7.76753 -1.91452 10
      vertex 7.08365 -3.71778 15
    endloop
  endfacet
  facet normal -0.935016 0.354605 0
    outer loop
      vertex 7.08365 -3.71778 15
      vertex 7.76753 -1.91452 10
      vertex 7.08365 -3.71778 10
    endloop
  endfacet
  facet normal -0.992709 0.120536 0
    outer loop
      vertex 8 0 15
      vertex 8 0 10
      vertex 7.76753 -1.91452 15
    endloop
  endfacet
  facet normal -0.992709 0.120536 0
    outer loop
      vertex 7.76753 -1.91452 15
      vertex 8 0 10
      vertex 7.76753 -1.91452 10
    endloop
  endfacet
  facet normal -0.992709 -0.120536 0
    outer loop
      vertex 8 0 15
      vertex 7.76753 1.91452 15
      vertex 8 0 10
    endloop
  endfacet
  facet normal -0.992709 -0.120536 0
    outer loop
      vertex 8 0 10
      vertex 7.76753 1.91452 15
      vertex 7.76753 1.91452 10
    endloop
  endfacet
  facet normal -0.935016 -0.354605 0
    outer loop
      vertex 7.76753 1.91452 15
      vertex 7.08365 3.71778 15
      vertex 7.76753 1.91452 10
    endloop
  endfacet
  facet normal -0.935016 -0.354605 0
    outer loop
      vertex 7.76753 1.91452 10
      vertex 7.08365 3.71778 15
      vertex 7.08365 3.71778 10
    endloop
  endfacet
  facet normal -0.822984 -0.568065 0
    outer loop
      vertex 7.08365 3.71778 15
      vertex 5.98809 5.30498 15
      vertex 7.08365 3.71778 10
    endloop
  endfacet
  facet normal -0.822984 -0.568065 0
    outer loop
      vertex 7.08365 3.71778 10
      vertex 5.98809 5.30498 15
      vertex 5.98809 5.30498 10
    endloop
  endfacet
  facet normal -0.663123 -0.748511 0
    outer loop
      vertex 5.98809 5.30498 10
      vertex 5.98809 5.30498 15
      vertex 4.54452 6.58387 15
    endloop
  endfacet
  facet normal -0.663123 -0.748511 0
    outer loop
      vertex 4.54452 6.58387 10
      vertex 5.98809 5.30498 10
      vertex 4.54452 6.58387 15
    endloop
  endfacet
  facet normal -0.464723 -0.885456 0
    outer loop
      vertex 4.54452 6.58387 10
      vertex 4.54452 6.58387 15
      vertex 2.83684 7.48013 15
    endloop
  endfacet
  facet normal -0.464723 -0.885456 0
    outer loop
      vertex 2.83684 7.48013 10
      vertex 4.54452 6.58387 10
      vertex 2.83684 7.48013 15
    endloop
  endfacet
  facet normal -0.239316 -0.970942 0
    outer loop
      vertex 2.83684 7.48013 10
      vertex 2.83684 7.48013 15
      vertex 0.964293 7.94167 15
    endloop
  endfacet
  facet normal -0.239316 -0.970942 0
    outer loop
      vertex 0.964293 7.94167 10
      vertex 2.83684 7.48013 10
      vertex 0.964293 7.94167 15
    endloop
  endfacet
  facet normal 0 -1 0
    outer loop
      vertex 0.964293 7.94167 10
      vertex 0.964293 7.94167 15
      vertex -0.964293 7.94167 15
    endloop
  endfacet
  facet normal 0 -1 0
    outer loop
      vertex -0.964293 7.94167 10
      vertex 0.964293 7.94167 10
      vertex -0.964293 7.94167 15
    endloop
  endfacet
  facet normal 0.239316 -0.970942 0
    outer loop
      vertex -0.964293 7.94167 10
      vertex -0.964293 7.94167 15
      vertex -2.83684 7.48013 15
    endloop
  endfacet
  facet normal 0.239316 -0.970942 0
    outer loop
      vertex -2.83684 7.48013 10
      vertex -0.964293 7.94167 10
      vertex -2.83684 7.48013 15
    endloop
  endfacet
  facet normal 0.464723 -0.885456 0
    outer loop
      vertex -2.83684 7.48013 10
      vertex -2.83684 7.48013 15
      vertex -4.54452 6.58387 15
    endloop
  endfacet
  facet normal 0.464723 -0.885456 0
    outer loop
      vertex -4.54452 6.58387 10
      vertex -2.83684 7.48013 10
      vertex -4.54452 6.58387 15
    endloop
  endfacet
  facet normal 0.663123 -0.748511 0
    outer loop
      vertex -4.54452 6.58387 10
      vertex -4.54452 6.58387 15
      vertex -5.98809 5.30498 15
    endloop
  endfacet
  facet normal 0.663123 -0.748511 0
    outer loop
      vertex -5.98809 5.30498 10
      vertex -4.54452 6.58387 10
      vertex -5.98809 5.30498 15
    endloop
  endfacet
  facet normal 0.822984 -0.568065 0
    outer loop
      vertex -5.98809 5.30498 10
      vertex -5.98809 5.30498 15
      vertex -7.08365 3.71778 15
    endloop
  endfacet
  facet normal 0.822984 -0.568065 0
    outer loop
      vertex -7.08365 3.71778 10
      vertex -5.98809 5.30498 10
      vertex -7.08365 3.71778 15
    endloop
  endfacet
  facet normal 0.935016 -0.354605 0
    outer loop
      vertex -7.08365 3.71778 10
      vertex -7.08365 3.71778 15
      vertex -7.76753 1.91452 15
    endloop
  endfacet
  facet normal 0.935016 -0.354605 0
    outer loop
      vertex -7.76753 1.91452 10
      vertex -7.08365 3.71778 10
      vertex -7.76753 1.91452 15
    endloop
  endfacet
  facet normal 0.992709 -0.120536 0
    outer loop
      vertex -7.76753 1.91452 10
      vertex -7.76753 1.91452 15
      vertex -8 0 15
    endloop
  endfacet
  facet normal 0.992709 -0.120536 0
    outer loop
      vertex -8 0 10
      vertex -7.76753 1.91452 10
      vertex -8 0 15
    endloop
  endfacet
  facet normal 0 0 -1
    outer loop
      vertex -13.7032 6.10105 10
      vertex -12.1353 8.81678 10
      vertex -14.6722 3.11867 10
    endloop
  endfacet
  facet normal 0 0 -1
    outer loop
      vertex -14.6722 3.11867 10
      vertex -12.1353 8.81678 10
      vertex -10.037 11.1472 10
    endloop
  endfacet
  facet normal 0 0 -1
    outer loop
      vertex -14.6722 3.11867 10
      vertex -10.037 11.1472 10
      vertex -7.5 12.9904 10
    endloop
  endfacet
  facet normal 0 0 -1
    outer loop
      vertex -14.6722 3.11867 10
      vertex -7.5 12.9904 10
      vertex -4.63525 14.2658 10
    endloop
  endfacet
  facet normal 0 0 -1
    outer loop
      vertex -14.6722 3.11867 10
      vertex -4.63525 14.2658 10
      vertex -1.56793 14.9178 10
    endloop
  endfacet
  facet normal 0 0 -1
    outer loop
      vertex -14.6722 3.11867 10
      vertex -1.56793 14.9178 10
      vertex 1.56793 14.9178 10
    endloop
  endfacet
  facet normal 0 0 -1
    outer loop
      vertex -14.6722 3.11867 10
      vertex 1.56793 14.9178 10
      vertex 4.63525 14.2658 10
    endloop
  endfacet
  facet normal 0 0 -1
    outer loop
      vertex -14.6722 3.11867 10
      vertex 4.63525 14.2658 10
      vertex 7.5 12.9904 10
    endloop
  endfacet
  facet normal 0 0 -1
    outer loop
      vertex -0.964293 7.94167 10
      vertex 7.5 12.9904 10
      vertex 10.037 11.1472 10
    endloop
  endfacet
  facet normal 0 0 -1
    outer loop
      vertex 2.83684 7.48013 10
      vertex 10.037 11.1472 10
      vertex 12.1353 8.81678 10
    endloop
  endfacet
  facet normal 0 0 -1
    outer loop
      vertex 5.98809 5.30498 10
      vertex 12.1353 8.81678 10
      vertex 13.7032 6.10105 10
    endloop
  endfacet
  facet normal 0 0 -1
    outer loop
      vertex 7.08365 3.71778 10
      vertex 13.7032 6.10105 10
      vertex 14.6722 3.11867 10
    endloop
  endfacet
  facet normal 0 0 -1
    outer loop
      vertex 7.76753 1.91452 10
      vertex 14.6722 3.11867 10
      vertex 15 0 10
    endloop
  endfacet
  facet normal 0 0 -1
    outer loop
      vertex 8 0 10
      vertex 15 0 10
      vertex 14.6722 -3.11867 10
    endloop
  endfacet
  facet normal 0 0 -1
    outer loop
      vertex 7.08365 -3.71778 10
      vertex 14.6722 -3.11867 10
      vertex 13.7032 -6.10105 10
    endloop
  endfacet
  facet normal 0 0 -1
    outer loop
      vertex 5.98809 -5.30498 10
      vertex 13.7032 -6.10105 10
      vertex 12.1353 -8.81678 10
    endloop
  endfacet
  facet normal 0 0 -1
    outer loop
      vertex 4.54452 -6.58387 10
      vertex 12.1353 -8.81678 10
      vertex 10.037 -11.1472 10
    endloop
  endfacet
  facet normal 0 0 -1
    outer loop
      vertex 0.964293 -7.94167 10
      vertex 10.037 -11.1472 10
      vertex 7.5 -12.9904 10
    endloop
  endfacet
  facet normal 0 0 -1
    outer loop
      vertex -0.964293 -7.94167 10
      vertex 7.5 -12.9904 10
      vertex 4.63525 -14.2658 10
    endloop
  endfacet
  facet normal 0 0 -1
    outer loop
      vertex -4.54452 -6.58387 10
      vertex 4.63525 -14.2658 10
      vertex 1.56793 -14.9178 10
    endloop
  endfacet
  facet normal 0 0 -1
    outer loop
      vertex -14.6722 3.11867 10
      vertex 1.56793 -14.9178 10
      vertex -1.56793 -14.9178 10
    endloop
  endfacet
  facet normal 0 0 -1
    outer loop
      vertex -14.6722 3.11867 10
      vertex -1.56793 -14.9178 10
      vertex -4.63525 -14.2658 10
    endloop
  endfacet
  facet normal 0 0 -1
    outer loop
      vertex -14.6722 3.11867 10
      vertex -4.63525 -14.2658 10
      vertex -7.5 -12.9904 10
    endloop
  endfacet
  facet normal 0 0 -1
    outer loop
      vertex -14.6722 3.11867 10
      vertex -7.5 -12.9904 10
      vertex -10.037 -11.1472 10
    endloop
  endfacet
  facet normal 0 0 -1
    outer loop
      vertex -14.6722 3.11867 10
      vertex -10.037 -11.1472 10
      vertex -12.1353 -8.81678 10
    endloop
  endfacet
  facet normal 0 0 -1
    outer loop
      vertex -14.6722 3.11867 10
      vertex -12.1353 -8.81678 10
      vertex -13.7032 -6.10105 10
    endloop
  endfacet
  facet normal 0 0 -1
    outer loop
      vertex -14.6722 3.11867 10
      vertex -13.7032 -6.10105 10
      vertex -14.6722 -3.11867 10
    endloop
  endfacet
  facet normal 0 0 -1
    outer loop
      vertex -14.6722 3.11867 10
      vertex -14.6722 -3.11867 10
      vertex -15 0 10
    endloop
  endfacet
  facet normal 0 0 -1
    outer loop
      vertex -7.08365 -3.71778 10
      vertex -14.6722 3.11867 10
      vertex -7.76753 -1.91452 10
    endloop
  endfacet
  facet normal 0 0 -1
    outer loop
      vertex -4.54452 -6.58387 10
      vertex 1.56793 -14.9178 10
      vertex -5.98809 -5.30498 10
    endloop
  endfacet
  facet normal 0 0 -1
    outer loop
      vertex -14.6722 3.11867 10
      vertex -7.08365 -3.71778 10
      vertex -5.98809 -5.30498 10
    endloop
  endfacet
  facet normal 0 0 -1
    outer loop
      vertex -14.6722 3.11867 10
      vertex -5.98809 -5.30498 10
      vertex 1.56793 -14.9178 10
    endloop
  endfacet
  facet normal 0 0 -1
    outer loop
      vertex -2.83684 -7.48013 10
      vertex 4.63525 -14.2658 10
      vertex -4.54452 -6.58387 10
    endloop
  endfacet
  facet normal 0 0 -1
    outer loop
      vertex 0.964293 -7.94167 10
      vertex 7.5 -12.9904 10
      vertex -0.964293 -7.94167 10
    endloop
  endfacet
  facet normal 0 0 -1
    outer loop
      vertex 2.83684 -7.48013 10
      vertex 10.037 -11.1472 10
      vertex 0.964293 -7.94167 10
    endloop
  endfacet
  facet normal 0 0 -1
    outer loop
      vertex -0.964293 -7.94167 10
      vertex 4.63525 -14.2658 10
      vertex -2.83684 -7.48013 10
    endloop
  endfacet
  facet normal 0 0 -1
    outer loop
      vertex 7.08365 -3.71778 10
      vertex 13.7032 -6.10105 10
      vertex 5.98809 -5.30498 10
    endloop
  endfacet
  facet normal 0 0 -1
    outer loop
      vertex 7.76753 -1.91452 10
      vertex 14.6722 -3.11867 10
      vertex 7.08365 -3.71778 10
    endloop
  endfacet
  facet normal 0 0 -1
    outer loop
      vertex 8 0 10
      vertex 14.6722 -3.11867 10
      vertex 7.76753 -1.91452 10
    endloop
  endfacet
  facet normal 0 0 -1
    outer loop
      vertex 7.76753 1.91452 10
      vertex 15 0 10
      vertex 8 0 10
    endloop
  endfacet
  facet normal 0 0 -1
    outer loop
      vertex -7.76753 1.91452 10
      vertex -14.6722 3.11867 10
      vertex -7.08365 3.71778 10
    endloop
  endfacet
  facet normal 0 0 -1
    outer loop
      vertex 7.08365 3.71778 10
      vertex 14.6722 3.11867 10
      vertex 7.76753 1.91452 10
    endloop
  endfacet
  facet normal 0 0 -1
    outer loop
      vertex 5.98809 5.30498 10
      vertex 13.7032 6.10105 10
      vertex 7.08365 3.71778 10
    endloop
  endfacet
  facet normal 0 0 -1
    outer loop
      vertex 4.54452 6.58387 10
      vertex 12.1353 8.81678 10
      vertex 5.98809 5.30498 10
    endloop
  endfacet
  facet normal 0 0 -1
    outer loop
      vertex 2.83684 7.48013 10
      vertex 12.1353 8.81678 10
      vertex 4.54452 6.58387 10
    endloop
  endfacet
  facet normal 0 0 -1
    outer loop
      vertex 0.964293 7.94167 10
      vertex 10.037 11.1472 10
      vertex 2.83684 7.48013 10
    endloop
  endfacet
  facet normal 0 0 -1
    outer loop
      vertex -0.964293 7.94167 10
      vertex 10.037 11.1472 10
      vertex 0.964293 7.94167 10
    endloop
  endfacet
  facet normal 0 0 -1
    outer loop
      vertex -2.83684 7.48013 10
      vertex 7.5 12.9904 10
      vertex -0.964293 7.94167 10
    endloop
  endfacet
  facet normal 0 0 -1
    outer loop
      vertex -4.54452 6.58387 10
      vertex -14.6722 3.11867 10
      vertex -2.83684 7.48013 10
    endloop
  endfacet
  facet normal 0 0 -1
    outer loop
      vertex -14.6722 3.11867 10
      vertex 7.5 12.9904 10
      vertex -2.83684 7.48013 10
    endloop
  endfacet
  facet normal 0 0 -1
    outer loop
      vertex -5.98809 5.30498 10
      vertex -14.6722 3.11867 10
      vertex -4.54452 6.58387 10
    endloop
  endfacet
  facet normal 0 0 -1
    outer loop
      vertex -7.08365 3.71778 10
      vertex -14.6722 3.11867 10
      vertex -5.98809 5.30498 10
    endloop
  endfacet
  facet normal 0 0 -1
    outer loop
      vertex -8 0 10
      vertex -14.6722 3.11867 10
      vertex -7.76753 1.91452 10
    endloop
  endfacet
  facet normal 0 0 -1
    outer loop
      vertex -7.76753 -1.91452 10
      vertex -14.6722 3.11867 10
      vertex -8 0 10
    endloop
  endfacet
  facet normal 0 0 -1
    outer loop
      vertex 5.98809 -5.30498 10
      vertex 12.1353 -8.81678 10
      vertex 4.54452 -6.58387 10
    endloop
  endfacet
  facet normal 0 0 -1
    outer loop
      vertex 4.54452 -6.58387 10
      vertex 10.037 -11.1472 10
      vertex 2.83684 -7.48013 10
    endloop
  endfacet
endsolid OpenSCAD_Model
