solid OpenSCAD_Model
  facet normal -1 0 0
    outer loop
      vertex -25 -25 -15
      vertex -25 -25 15
      vertex -25 25 -15
    endloop
  endfacet
  facet normal -1 0 0
    outer loop
      vertex -25 25 -15
      vertex -25 -25 15
      vertex -25 25 15
    endloop
  endfacet
  facet normal 0 -1 0
    outer loop
      vertex -25 -25 15
      vertex -25 -25 -15
      vertex 25 -25 -15
    endloop
  endfacet
  facet normal 0 -1 0
    outer loop
      vertex 25 -25 15
      vertex -25 -25 15
      vertex 25 -25 -15
    endloop
  endfacet
  facet normal 0 0 -1
    outer loop
      vertex 4.54452 6.58387 -15
      vertex -25 25 -15
      vertex 25 25 -15
    endloop
  endfacet
  facet normal 0 0 -1
    outer loop
      vertex -25 -25 -15
      vertex -25 25 -15
      vertex -8 0 -15
    endloop
  endfacet
  facet normal 0 0 -1
    outer loop
      vertex -7.08365 3.71778 -15
      vertex -25 25 -15
      vertex -5.98809 5.30498 -15
    endloop
  endfacet
  facet normal 0 0 -1
    outer loop
      vertex -25 -25 -15
      vertex -8 0 -15
      vertex -7.76753 -1.91452 -15
    endloop
  endfacet
  facet normal 0 0 -1
    outer loop
      vertex -25 -25 -15
      vertex -7.76753 -1.91452 -15
      vertex -7.08365 -3.71778 -15
    endloop
  endfacet
  facet normal 0 0 -1
    outer loop
      vertex -25 -25 -15
      vertex -7.08365 -3.71778 -15
      vertex -5.98809 -5.30498 -15
    endloop
  endfacet
  facet normal 0 0 -1
    outer loop
      vertex -25 -25 -15
      vertex -5.98809 -5.30498 -15
      vertex -4.54452 -6.58387 -15
    endloop
  endfacet
  facet normal 0 0 -1
    outer loop
      vertex -25 -25 -15
      vertex -4.54452 -6.58387 -15
      vertex 25 -25 -15
    endloop
  endfacet
  facet normal 0 0 -1
    outer loop
      vertex -4.54452 -6.58387 -15
      vertex -2.83684 -7.48013 -15
      vertex 25 -25 -15
    endloop
  endfacet
  facet normal 0 0 -1
    outer loop
      vertex 0.964293 -7.94167 -15
      vertex 25 -25 -15
      vertex -0.964293 -7.94167 -15
    endloop
  endfacet
  facet normal 0 0 -1
    outer loop
      vertex 2.83684 -7.48013 -15
      vertex 25 -25 -15
      vertex 0.964293 -7.94167 -15
    endloop
  endfacet
  facet normal 0 0 -1
    outer loop
      vertex 5.98809 -5.30498 -15
      vertex 25 -25 -15
      vertex 4.54452 -6.58387 -15
    endloop
  endfacet
  facet normal 0 0 -1
    outer loop
      vertex 2.83684 -7.48013 -15
      vertex 4.54452 -6.58387 -15
      vertex 25 -25 -15
    endloop
  endfacet
  facet normal 0 0 -1
    outer loop
      vertex 7.76753 -1.91452 -15
      vertex 25 25 -15
      vertex 7.08365 -3.71778 -15
    endloop
  endfacet
  facet normal 0 0 -1
    outer loop
      vertex 25 -25 -15
      vertex 5.98809 -5.30498 -15
      vertex 7.08365 -3.71778 -15
    endloop
  endfacet
  facet normal 0 0 -1
    outer loop
      vertex 25 -25 -15
      vertex 7.08365 -3.71778 -15
      vertex 25 25 -15
    endloop
  endfacet
  facet normal 0 0 -1
    outer loop
      vertex -5.98809 5.30498 -15
      vertex -25 25 -15
      vertex -4.54452 6.58387 -15
    endloop
  endfacet
  facet normal 0 0 -1
    outer loop
      vertex 0.964293 7.94167 -15
      vertex -25 25 -15
      vertex 2.83684 7.48013 -15
    endloop
  endfacet
  facet normal 0 0 -1
    outer loop
      vertex -4.54452 6.58387 -15
      vertex -25 25 -15
      vertex -2.83684 7.48013 -15
    endloop
  endfacet
  facet normal 0 0 -1
    outer loop
      vertex 7.76753 -1.91452 -15
      vertex 8 0 -15
      vertex 25 25 -15
    endloop
  endfacet
  facet normal 0 0 -1
    outer loop
      vertex -2.83684 7.48013 -15
      vertex -25 25 -15
      vertex -0.964293 7.94167 -15
    endloop
  endfacet
  facet normal 0 0 -1
    outer loop
      vertex 8 0 -15
      vertex 7.76753 1.91452 -15
      vertex 25 25 -15
    endloop
  endfacet
  facet normal 0 0 -1
    outer loop
      vertex 7.76753 1.91452 -15
      vertex 7.08365 3.71778 -15
      vertex 25 25 -15
    endloop
  endfacet
  facet normal 0 0 -1
    outer loop
      vertex -0.964293 7.94167 -15
      vertex -25 25 -15
      vertex 0.964293 7.94167 -15
    endloop
  endfacet
  facet normal 0 0 -1
    outer loop
      vertex 7.08365 3.71778 -15
      vertex 5.98809 5.30498 -15
      vertex 25 25 -15
    endloop
  endfacet
  facet normal 0 0 -1
    outer loop
      vertex 2.83684 7.48013 -15
      vertex -25 25 -15
      vertex 4.54452 6.58387 -15
    endloop
  endfacet
  facet normal 0 0 -1
    outer loop
      vertex 5.98809 5.30498 -15
      vertex 4.54452 6.58387 -15
      vertex 25 25 -15
    endloop
  endfacet
  facet normal 0 0 -1
    outer loop
      vertex -7.76753 1.91452 -15
      vertex -25 25 -15
      vertex -7.08365 3.71778 -15
    endloop
  endfacet
  facet normal 0 0 -1
    outer loop
      vertex -8 0 -15
      vertex -25 25 -15
      vertex -7.76753 1.91452 -15
    endloop
  endfacet
  facet normal 0 0 -1
    outer loop
      vertex -0.964293 -7.94167 -15
      vertex 25 -25 -15
      vertex -2.83684 -7.48013 -15
    endloop
  endfacet
  facet normal 0 1 0
    outer loop
      vertex -25 25 -15
      vertex -25 25 15
      vertex 25 25 -15
    endloop
  endfacet
  facet normal 0 1 0
    outer loop
      vertex 25 25 -15
      vertex -25 25 15
      vertex 25 25 15
    endloop
  endfacet
  facet normal 0 0 1
    outer loop
      vertex -1.80194 -0.867767 15
      vertex -25 -25 15
      vertex 25 -25 15
    endloop
  endfacet
  facet normal 0 0 1
    outer loop
      vertex -0.445042 -1.94986 15
      vertex -1.80194 -0.867767 15
      vertex 25 -25 15
    endloop
  endfacet
  facet normal 0 0 1
    outer loop
      vertex -25 25 15
      vertex -25 -25 15
      vertex -1.80194 -0.867767 15
    endloop
  endfacet
  facet normal 0 0 1
    outer loop
      vertex -25 25 15
      vertex -1.80194 -0.867767 15
      vertex -1.80194 0.867767 15
    endloop
  endfacet
  facet normal 0 0 1
    outer loop
      vertex 1.24698 -1.56366 15
      vertex -0.445042 -1.94986 15
      vertex 25 -25 15
    endloop
  endfacet
  facet normal 0 0 1
    outer loop
      vertex 25 25 15
      vertex -25 25 15
      vertex -0.445042 1.94986 15
    endloop
  endfacet
  facet normal 0 0 1
    outer loop
      vertex 25 25 15
      vertex 1.24698 1.56366 15
      vertex 25 -25 15
    endloop
  endfacet
  facet normal 0 0 1
    outer loop
      vertex 25 25 15
      vertex -0.445042 1.94986 15
      vertex 1.24698 1.56366 15
    endloop
  endfacet
  facet normal 0 0 1
    outer loop
      vertex 1.24698 1.56366 15
      vertex 2 0 15
      vertex 25 -25 15
    endloop
  endfacet
  facet normal 0 0 1
    outer loop
      vertex 2 0 15
      vertex 1.24698 -1.56366 15
      vertex 25 -25 15
    endloop
  endfacet
  facet normal 0 0 1
    outer loop
      vertex -1.80194 0.867767 15
      vertex -0.445042 1.94986 15
      vertex -25 25 15
    endloop
  endfacet
  facet normal 1 0 0
    outer loop
      vertex 25 -25 15
      vertex 25 -25 -15
      vertex 25 25 -15
    endloop
  endfacet
  facet normal 1 0 0
    outer loop
      vertex 25 25 15
      vertex 25 -25 15
      vertex 25 25 -15
    endloop
  endfacet
  facet normal 0.992709 -0.120536 0
    outer loop
      vertex -7.76753 1.91452 -15
      vertex -7.76753 1.91452 10
      vertex -8 0 10
    endloop
  endfacet
  facet normal 0.992709 -0.120536 0
    outer loop
      vertex -8 0 -15
      vertex -7.76753 1.91452 -15
      vertex -8 0 10
    endloop
  endfacet
  facet normal 0.992709 0.120536 0
    outer loop
      vertex -8 0 10
      vertex -7.76753 -1.91452 10
      vertex -7.76753 -1.91452 -15
    endloop
  endfacet
  facet normal 0.992709 0.120536 0
    outer loop
      vertex -8 0 -15
      vertex -8 0 10
      vertex -7.76753 -1.91452 -15
    endloop
  endfacet
  facet normal 0.935016 -0.354605 0
    outer loop
      vertex -7.08365 3.71778 -15
      vertex -7.08365 3.71778 10
      vertex -7.76753 1.91452 10
    endloop
  endfacet
  facet normal 0.935016 -0.354605 0
    outer loop
      vertex -7.76753 1.91452 -15
      vertex -7.08365 3.71778 -15
      vertex -7.76753 1.91452 10
    endloop
  endfacet
  facet normal 0.822984 -0.568065 0
    outer loop
      vertex -5.98809 5.30498 -15
      vertex -5.98809 5.30498 10
      vertex -7.08365 3.71778 10
    endloop
  endfacet
  facet normal 0.822984 -0.568065 0
    outer loop
      vertex -7.08365 3.71778 -15
      vertex -5.98809 5.30498 -15
      vertex -7.08365 3.71778 10
    endloop
  endfacet
  facet normal 0.663123 -0.748511 0
    outer loop
      vertex -4.54452 6.58387 -15
      vertex -4.54452 6.58387 10
      vertex -5.98809 5.30498 10
    endloop
  endfacet
  facet normal 0.663123 -0.748511 0
    outer loop
      vertex -5.98809 5.30498 -15
      vertex -4.54452 6.58387 -15
      vertex -5.98809 5.30498 10
    endloop
  endfacet
  facet normal 0.464723 -0.885456 0
    outer loop
      vertex -2.83684 7.48013 -15
      vertex -2.83684 7.48013 10
      vertex -4.54452 6.58387 10
    endloop
  endfacet
  facet normal 0.464723 -0.885456 0
    outer loop
      vertex -4.54452 6.58387 -15
      vertex -2.83684 7.48013 -15
      vertex -4.54452 6.58387 10
    endloop
  endfacet
  facet normal 0.239316 -0.970942 0
    outer loop
      vertex -0.964293 7.94167 -15
      vertex -0.964293 7.94167 10
      vertex -2.83684 7.48013 10
    endloop
  endfacet
  facet normal 0.239316 -0.970942 0
    outer loop
      vertex -2.83684 7.48013 -15
      vertex -0.964293 7.94167 -15
      vertex -2.83684 7.48013 10
    endloop
  endfacet
  facet normal 0 -1 0
    outer loop
      vertex 0.964293 7.94167 -15
      vertex 0.964293 7.94167 10
      vertex -0.964293 7.94167 10
    endloop
  endfacet
  facet normal 0 -1 0
    outer loop
      vertex -0.964293 7.94167 -15
      vertex 0.964293 7.94167 -15
      vertex -0.964293 7.94167 10
    endloop
  endfacet
  facet normal -0.239316 -0.970942 0
    outer loop
      vertex 2.83684 7.48013 -15
      vertex 2.83684 7.48013 10
      vertex 0.964293 7.94167 10
    endloop
  endfacet
  facet normal -0.239316 -0.970942 0
    outer loop
      vertex 0.964293 7.94167 -15
      vertex 2.83684 7.48013 -15
      vertex 0.964293 7.94167 10
    endloop
  endfacet
  facet normal -0.464723 -0.885456 0
    outer loop
      vertex 4.54452 6.58387 -15
      vertex 4.54452 6.58387 10
      vertex 2.83684 7.48013 10
    endloop
  endfacet
  facet normal -0.464723 -0.885456 0
    outer loop
      vertex 2.83684 7.48013 -15
      vertex 4.54452 6.58387 -15
      vertex 2.83684 7.48013 10
    endloop
  endfacet
  facet normal -0.663123 -0.748511 0
    outer loop
      vertex 5.98809 5.30498 -15
      vertex 5.98809 5.30498 10
      vertex 4.54452 6.58387 10
    endloop
  endfacet
  facet normal -0.663123 -0.748511 0
    outer loop
      vertex 4.54452 6.58387 -15
      vertex 5.98809 5.30498 -15
      vertex 4.54452 6.58387 10
    endloop
  endfacet
  facet normal -0.822984 -0.568065 0
    outer loop
      vertex 7.08365 3.71778 10
      vertex 5.98809 5.30498 10
      vertex 7.08365 3.71778 -15
    endloop
  endfacet
  facet normal -0.822984 -0.568065 0
    outer loop
      vertex 7.08365 3.71778 -15
      vertex 5.98809 5.30498 10
      vertex 5.98809 5.30498 -15
    endloop
  endfacet
  facet normal -0.935016 -0.354605 0
    outer loop
      vertex 7.76753 1.91452 10
      vertex 7.08365 3.71778 10
      vertex 7.76753 1.91452 -15
    endloop
  endfacet
  facet normal -0.935016 -0.354605 0
    outer loop
      vertex 7.76753 1.91452 -15
      vertex 7.08365 3.71778 10
      vertex 7.08365 3.71778 -15
    endloop
  endfacet
  facet normal -0.992709 -0.120536 0
    outer loop
      vertex 8 0 10
      vertex 7.76753 1.91452 10
      vertex 8 0 -15
    endloop
  endfacet
  facet normal -0.992709 -0.120536 0
    outer loop
      vertex 8 0 -15
      vertex 7.76753 1.91452 10
      vertex 7.76753 1.91452 -15
    endloop
  endfacet
  facet normal -0.992709 0.120536 0
    outer loop
      vertex 8 0 10
      vertex 8 0 -15
      vertex 7.76753 -1.91452 10
    endloop
  endfacet
  facet normal -0.992709 0.120536 0
    outer loop
      vertex 7.76753 -1.91452 10
      vertex 8 0 -15
      vertex 7.76753 -1.91452 -15
    endloop
  endfacet
  facet normal -0.935016 0.354605 0
    outer loop
      vertex 7.76753 -1.91452 10
      vertex 7.76753 -1.91452 -15
      vertex 7.08365 -3.71778 10
    endloop
  endfacet
  facet normal -0.935016 0.354605 0
    outer loop
      vertex 7.08365 -3.71778 10
      vertex 7.76753 -1.91452 -15
      vertex 7.08365 -3.71778 -15
    endloop
  endfacet
  facet normal -0.822984 0.568065 0
    outer loop
      vertex 7.08365 -3.71778 10
      vertex 7.08365 -3.71778 -15
      vertex 5.98809 -5.30498 10
    endloop
  endfacet
  facet normal -0.822984 0.568065 0
    outer loop
      vertex 5.98809 -5.30498 10
      vertex 7.08365 -3.71778 -15
      vertex 5.98809 -5.30498 -15
    endloop
  endfacet
  facet normal -0.663123 0.748511 0
    outer loop
      vertex 5.98809 -5.30498 10
      vertex 5.98809 -5.30498 -15
      vertex 4.54452 -6.58387 10
    endloop
  endfacet
  facet normal -0.663123 0.748511 0
    outer loop
      vertex 4.54452 -6.58387 10
      vertex 5.98809 -5.30498 -15
      vertex 4.54452 -6.58387 -15
    endloop
  endfacet
  facet normal -0.464723 0.885456 0
    outer loop
      vertex 4.54452 -6.58387 10
      vertex 4.54452 -6.58387 -15
      vertex 2.83684 -7.48013 10
    endloop
  endfacet
  facet normal -0.464723 0.885456 0
    outer loop
      vertex 2.83684 -7.48013 10
      vertex 4.54452 -6.58387 -15
      vertex 2.83684 -7.48013 -15
    endloop
  endfacet
  facet normal -0.239316 0.970942 0
    outer loop
      vertex 2.83684 -7.48013 10
      vertex 2.83684 -7.48013 -15
      vertex 0.964293 -7.94167 10
    endloop
  endfacet
  facet normal -0.239316 0.970942 0
    outer loop
      vertex 0.964293 -7.94167 10
      vertex 2.83684 -7.48013 -15
      vertex 0.964293 -7.94167 -15
    endloop
  endfacet
  facet normal 0 1 0
    outer loop
      vertex 0.964293 -7.94167 10
      vertex 0.964293 -7.94167 -15
      vertex -0.964293 -7.94167 10
    endloop
  endfacet
  facet normal 0 1 0
    outer loop
      vertex -0.964293 -7.94167 10
      vertex 0.964293 -7.94167 -15
      vertex -0.964293 -7.94167 -15
    endloop
  endfacet
  facet normal 0.239316 0.970942 0
    outer loop
      vertex -0.964293 -7.94167 10
      vertex -0.964293 -7.94167 -15
      vertex -2.83684 -7.48013 10
    endloop
  endfacet
  facet normal 0.239316 0.970942 0
    outer loop
      vertex -2.83684 -7.48013 10
      vertex -0.964293 -7.94167 -15
      vertex -2.83684 -7.48013 -15
    endloop
  endfacet
  facet normal 0.464723 0.885456 0
    outer loop
      vertex -2.83684 -7.48013 10
      vertex -2.83684 -7.48013 -15
      vertex -4.54452 -6.58387 10
    endloop
  endfacet
  facet normal 0.464723 0.885456 0
    outer loop
      vertex -4.54452 -6.58387 10
      vertex -2.83684 -7.48013 -15
      vertex -4.54452 -6.58387 -15
    endloop
  endfacet
  facet normal 0.663123 0.748511 0
    outer loop
      vertex -4.54452 -6.58387 10
      vertex -4.54452 -6.58387 -15
      vertex -5.98809 -5.30498 10
    endloop
  endfacet
  facet normal 0.663123 0.748511 0
    outer loop
      vertex -5.98809 -5.30498 10
      vertex -4.54452 -6.58387 -15
      vertex -5.98809 -5.30498 -15
    endloop
  endfacet
  facet normal 0.822984 0.568065 0
    outer loop
      vertex -7.08365 -3.71778 10
      vertex -5.98809 -5.30498 10
      vertex -5.98809 -5.30498 -15
    endloop
  endfacet
  facet normal 0.822984 0.568065 0
    outer loop
      vertex -7.08365 -3.71778 -15
      vertex -7.08365 -3.71778 10
      vertex -5.98809 -5.30498 -15
    endloop
  endfacet
  facet normal 0.935016 0.354605 0
    outer loop
      vertex -7.76753 -1.91452 10
      vertex -7.08365 -3.71778 10
      vertex -7.08365 -3.71778 -15
    endloop
  endfacet
  facet normal 0.935016 0.354605 0
    outer loop
      vertex -7.76753 -1.91452 -15
      vertex -7.76753 -1.91452 10
      vertex -7.08365 -3.71778 -15
    endloop
  endfacet
  facet normal 1 0 0
    outer loop
      vertex -1.80194 0.867767 10
      vertex -1.80194 0.867767 15
      vertex -1.80194 -0.867767 15
    endloop
  endfacet
  facet normal 1 0 0
    outer loop
      vertex -1.80194 -0.867767 10
      vertex -1.80194 0.867767 10
      vertex -1.80194 -0.867767 15
    endloop
  endfacet
  facet normal 0.62349 0.781831 0
    outer loop
      vertex -0.445042 -1.94986 15
      vertex -0.445042 -1.94986 10
      vertex -1.80194 -0.867767 15
    endloop
  endfacet
  facet normal 0.62349 0.781831 0
    outer loop
      vertex -1.80194 -0.867767 15
      vertex -0.445042 -1.94986 10
      vertex -1.80194 -0.867767 10
    endloop
  endfacet
  facet normal -0.222521 0.974928 0
    outer loop
      vertex 1.24698 -1.56366 15
      vertex 1.24698 -1.56366 10
      vertex -0.445042 -1.94986 15
    endloop
  endfacet
  facet normal -0.222521 0.974928 0
    outer loop
      vertex -0.445042 -1.94986 15
      vertex 1.24698 -1.56366 10
      vertex -0.445042 -1.94986 10
    endloop
  endfacet
  facet normal -0.900969 0.433884 0
    outer loop
      vertex 2 0 15
      vertex 2 0 10
      vertex 1.24698 -1.56366 15
    endloop
  endfacet
  facet normal -0.900969 0.433884 0
    outer loop
      vertex 1.24698 -1.56366 15
      vertex 2 0 10
      vertex 1.24698 -1.56366 10
    endloop
  endfacet
  facet normal -0.900969 -0.433884 0
    outer loop
      vertex 2 0 15
      vertex 1.24698 1.56366 15
      vertex 2 0 10
    endloop
  endfacet
  facet normal -0.900969 -0.433884 0
    outer loop
      vertex 2 0 10
      vertex 1.24698 1.56366 15
      vertex 1.24698 1.56366 10
    endloop
  endfacet
  facet normal -0.222521 -0.974928 0
    outer loop
      vertex 1.24698 1.56366 10
      vertex 1.24698 1.56366 15
      vertex -0.445042 1.94986 15
    endloop
  endfacet
  facet normal -0.222521 -0.974928 0
    outer loop
      vertex -0.445042 1.94986 10
      vertex 1.24698 1.56366 10
      vertex -0.445042 1.94986 15
    endloop
  endfacet
  facet normal 0.62349 -0.781831 0
    outer loop
      vertex -0.445042 1.94986 10
      vertex -0.445042 1.94986 15
      vertex -1.80194 0.867767 15
    endloop
  endfacet
  facet normal 0.62349 -0.781831 0
    outer loop
      vertex -1.80194 0.867767 10
      vertex -0.445042 1.94986 10
      vertex -1.80194 0.867767 15
    endloop
  endfacet
  facet normal 0 0 -1
    outer loop
      vertex -7.08365 3.71778 10
      vertex -5.98809 5.30498 10
      vertex -7.76753 1.91452 10
    endloop
  endfacet
  facet normal 0 0 -1
    outer loop
      vertex -7.76753 1.91452 10
      vertex -5.98809 5.30498 10
      vertex -4.54452 6.58387 10
    endloop
  endfacet
  facet normal 0 0 -1
    outer loop
      vertex -7.76753 1.91452 10
      vertex -4.54452 6.58387 10
      vertex -2.83684 7.48013 10
    endloop
  endfacet
  facet normal 0 0 -1
    outer loop
      vertex -7.76753 1.91452 10
      vertex -2.83684 7.48013 10
      vertex -0.964293 7.94167 10
    endloop
  endfacet
  facet normal 0 0 -1
    outer loop
      vertex -7.76753 1.91452 10
      vertex -0.964293 7.94167 10
      vertex 0.964293 7.94167 10
    endloop
  endfacet
  facet normal 0 0 -1
    outer loop
      vertex -7.76753 1.91452 10
      vertex 0.964293 7.94167 10
      vertex 2.83684 7.48013 10
    endloop
  endfacet
  facet normal 0 0 -1
    outer loop
      vertex -7.76753 1.91452 10
      vertex 2.83684 7.48013 10
      vertex 4.54452 6.58387 10
    endloop
  endfacet
  facet normal 0 0 -1
    outer loop
      vertex -7.76753 1.91452 10
      vertex 4.54452 6.58387 10
      vertex 5.98809 5.30498 10
    endloop
  endfacet
  facet normal 0 0 -1
    outer loop
      vertex -7.76753 1.91452 10
      vertex 5.98809 5.30498 10
      vertex 7.08365 3.71778 10
    endloop
  endfacet
  facet normal 0 0 -1
    outer loop
      vertex -0.445042 1.94986 10
      vertex 7.08365 3.71778 10
      vertex 7.76753 1.91452 10
    endloop
  endfacet
  facet normal 0 0 -1
    outer loop
      vertex 1.24698 1.56366 10
      vertex 7.76753 1.91452 10
      vertex 8 0 10
    endloop
  endfacet
  facet normal 0 0 -1
    outer loop
      vertex 2 0 10
      vertex 8 0 10
      vertex 7.76753 -1.91452 10
    endloop
  endfacet
  facet normal 0 0 -1
    outer loop
      vertex 2 0 10
      vertex 7.08365 -3.71778 10
      vertex 1.24698 -1.56366 10
    endloop
  endfacet
  facet normal 0 0 -1
    outer loop
      vertex -0.445042 -1.94986 10
      vertex 5.98809 -5.30498 10
      vertex 4.54452 -6.58387 10
    endloop
  endfacet
  facet normal 0 0 -1
    outer loop
      vertex -7.76753 1.91452 10
      vertex 4.54452 -6.58387 10
      vertex 2.83684 -7.48013 10
    endloop
  endfacet
  facet normal 0 0 -1
    outer loop
      vertex -7.76753 1.91452 10
      vertex 2.83684 -7.48013 10
      vertex 0.964293 -7.94167 10
    endloop
  endfacet
  facet normal 0 0 -1
    outer loop
      vertex -7.76753 1.91452 10
      vertex 0.964293 -7.94167 10
      vertex -0.964293 -7.94167 10
    endloop
  endfacet
  facet normal 0 0 -1
    outer loop
      vertex -7.76753 1.91452 10
      vertex -0.964293 -7.94167 10
      vertex -2.83684 -7.48013 10
    endloop
  endfacet
  facet normal 0 0 -1
    outer loop
      vertex -7.76753 1.91452 10
      vertex -2.83684 -7.48013 10
      vertex -4.54452 -6.58387 10
    endloop
  endfacet
  facet normal 0 0 -1
    outer loop
      vertex -7.76753 1.91452 10
      vertex -4.54452 -6.58387 10
      vertex -5.98809 -5.30498 10
    endloop
  endfacet
  facet normal 0 0 -1
    outer loop
      vertex -7.76753 1.91452 10
      vertex -5.98809 -5.30498 10
      vertex -7.08365 -3.71778 10
    endloop
  endfacet
  facet normal 0 0 -1
    outer loop
      vertex -7.76753 1.91452 10
      vertex -7.08365 -3.71778 10
      vertex -7.76753 -1.91452 10
    endloop
  endfacet
  facet normal 0 0 -1
    outer loop
      vertex -7.76753 1.91452 10
      vertex -7.76753 -1.91452 10
      vertex -8 0 10
    endloop
  endfacet
  facet normal 0 0 -1
    outer loop
      vertex 2 0 10
      vertex 7.76753 -1.91452 10
      vertex 7.08365 -3.71778 10
    endloop
  endfacet
  facet normal 0 0 -1
    outer loop
      vertex 1.24698 -1.56366 10
      vertex 5.98809 -5.30498 10
      vertex -0.445042 -1.94986 10
    endloop
  endfacet
  facet normal 0 0 -1
    outer loop
      vertex 1.24698 -1.56366 10
      vertex 7.08365 -3.71778 10
      vertex 5.98809 -5.30498 10
    endloop
  endfacet
  facet normal 0 0 -1
    outer loop
      vertex -7.76753 1.91452 10
      vertex -0.445042 -1.94986 10
      vertex 4.54452 -6.58387 10
    endloop
  endfacet
  facet normal 0 0 -1
    outer loop
      vertex -0.445042 -1.94986 10
      vertex -7.76753 1.91452 10
      vertex -1.80194 -0.867767 10
    endloop
  endfacet
  facet normal 0 0 -1
    outer loop
      vertex -0.445042 1.94986 10
      vertex 7.76753 1.91452 10
      vertex 1.24698 1.56366 10
    endloop
  endfacet
  facet normal 0 0 -1
    outer loop
      vertex -7.76753 1.91452 10
      vertex 7.08365 3.71778 10
      vertex -0.445042 1.94986 10
    endloop
  endfacet
  facet normal 0 0 -1
    outer loop
      vertex -1.80194 0.867767 10
      vertex -7.76753 1.91452 10
      vertex -0.445042 1.94986 10
    endloop
  endfacet
  facet normal 0 0 -1
    outer loop
      vertex -1.80194 -0.867767 10
      vertex -7.76753 1.91452 10
      vertex -1.80194 0.867767 10
    endloop
  endfacet
  facet normal 0 0 -1
    outer loop
      vertex 1.24698 1.56366 10
      vertex 8 0 10
      vertex 2 0 10
    endloop
  endfacet
endsolid OpenSCAD_Model
